<svg xmlns="http://www.w3.org/2000/svg" xmlns:xlink="http://www.w3.org/1999/xlink" width="46" height="48"><defs><path id="17ota" d="M1416.2 934.15a15.47 15.47 0 0 0-4.1-5.87 15.2 15.2 0 0 0-6.29-3.62c3.78-2.77 10-5.09 12.1-3.15l.4.37c2.1 1.94.33 8.27-2.1 12.27zm-23.88 28.33c-.65.7-1.94.88-3.53.47a13.8 13.8 0 0 1-5.68-3.3 13.8 13.8 0 0 1-3.76-5.39c-.53-1.55-.47-2.85.18-3.56.28-.3.68-.5 1.16-.6.65-.14 1.46-.1 2.38.13a13.8 13.8 0 0 1 5.67 3.3 13.8 13.8 0 0 1 3.76 5.4c.54 1.55.47 2.85-.18 3.55zm-9.13-14.64c.82-.9 2.33-.67 3.16-.45 1.67.43 3.53 1.53 5.23 3.1a13.01 13.01 0 0 1 3.54 5.08c.5 1.45.45 2.66-.15 3.31l-.05.06-.23-.77a16.12 16.12 0 0 0-4.38-6.34 16.13 16.13 0 0 0-6.67-3.84c-.17-.05-.34-.07-.5-.1l.05-.05zm31.22-11.08c-.03.14-.03.28-.01.42-.05.5-.2.9-.48 1.2l-.16.22-16.11 17.5a8.96 8.96 0 0 0-.34-1.28 15.34 15.34 0 0 0-4.16-6.04 15.27 15.27 0 0 0-6.22-3.64 8.36 8.36 0 0 0-1.23-.21l16.22-17.6.1-.14c1.35-1.19 5.07-.37 8.52 2.8a13.02 13.02 0 0 1 3.54 5.08c.21.62.32 1.19.33 1.7zm5.07-16.95c-4.1-3.78-13.7 1.32-17.02 4.68-.9.19-1.68.6-2.27 1.24-.07.07-.12.14-.16.22l-20.27 22a4.3 4.3 0 0 0-1.93 1.18c-1.26 1.38-1.5 3.46-.67 5.88.75 2.18 2.3 4.43 4.38 6.34a16.12 16.12 0 0 0 6.68 3.85 7.6 7.6 0 0 0 3.43.16 4.23 4.23 0 0 0 3.28-2.92l.07-.05 20.65-22.42c.09-.1.15-.2.2-.31.48-.63.77-1.38.86-2.23 3.06-3.67 7.25-13.5 3.18-17.25z"/></defs><use fill="#da5858" xlink:href="#17ota" transform="translate(-1376 -918)"/></svg>