<svg width="58" height="53" xmlns="http://www.w3.org/2000/svg"><title>Group 33</title><g id="Page-1" fill="none" fill-rule="evenodd"><g id="01-classificados" transform="translate(-405 -804)" fill="#86BAF3" fill-rule="nonzero"><g id="Group-33" transform="translate(405 803)"><path d="M29.579 35.242H11.423c-3.505 0-6.38-2.915-6.38-6.47v-.996c0-3.554 2.875-6.469 6.38-6.469H29.58c3.504 0 6.378 2.915 6.378 6.47v.996c0 3.554-2.874 6.469-6.378 6.469zm0 3.483c5.401 0 9.813-4.474 9.813-9.952v-.997c0-5.478-4.412-9.952-9.813-9.952H11.423c-5.402 0-9.815 4.474-9.815 9.952v.997c0 5.478 4.413 9.952 9.815 9.952H29.58z" id="Shape"/><path d="M9.63 28.373l5.307 3.617c.812.554 1.91.33 2.452-.502a1.834 1.834 0 0 0-.49-2.508l-5.306-3.617a1.745 1.745 0 0 0-2.453.501 1.834 1.834 0 0 0 .49 2.509zm20.581-3.01l-5.306 3.617a1.834 1.834 0 0 0-.49 2.508 1.745 1.745 0 0 0 2.452.502l5.306-3.617a1.834 1.834 0 0 0 .49-2.509 1.745 1.745 0 0 0-2.452-.501z" id="Shape"/><path d="M41 33.5C41 22.178 31.822 13 20.5 13S0 22.178 0 33.5 9.178 54 20.5 54 41 44.822 41 33.5zm-3.417 0c0 9.435-7.648 17.083-17.083 17.083-9.435 0-17.083-7.648-17.083-17.083 0-9.435 7.648-17.083 17.083-17.083 9.435 0 17.083 7.648 17.083 17.083z" id="Shape"/><path d="M35.902 18.111l.826.754c-.562-.24-.837-.49-.826-.754zm2.318 2.113l.793 1.292c-.885.724.737 1.776 4.867 3.156 6.195 2.07 6.58 8.9 7.8 7.066.813-1.223 1.253-3.348 1.32-6.377-1.38-.234-3.309-1.154-5.787-2.759-2.478-1.604-5.476-2.698-8.993-3.28-.623-.147-1.12-.3-1.492-.457l1.492 1.36zm-2.318-2.113c.012-.262.308-.536.887-.822 2.322-1.147 14.142 6.06 14.142 2.033 0-2.685-.603-5.443-1.808-8.275-.124 3.91-1.966 4.766-5.526 2.566-3.56-2.2-6.426-1.386-8.597 2.443v1.233l.902.822zm10.223-7.159c-.032-5.406.514-8.374 1.635-8.901.967-.455 2.341 2.152 4.123 7.822 1.358 3.191 2.048 6.346 2.048 9.449 0 1.279-.378 2.245-1.012 2.928.22.074.415.125.583.153l2.555.434-.058 2.59c-.078 3.548-.62 6.167-1.821 7.972-.709 1.066-1.763 1.804-3.28 1.626-1.225-.144-1.919-.738-2.542-1.61-.232-.326-.401-.615-.726-1.207-.664-1.211-.943-1.676-1.427-2.3-.886-1.145-1.92-1.938-3.274-2.39-2.287-.765-3.92-1.455-4.996-2.153-.87-.564-1.508-1.187-1.885-2.096a3.52 3.52 0 0 1-.27-1.212L32 18.613v-3.348l.39-.688c2.993-5.279 7.745-6.63 12.784-3.516.343.212.648.377.91.499.019-.177.033-.38.04-.608z" id="Path-4" transform="rotate(-10 44.028 18.526)"/></g></g></g></svg>