<svg width="58" height="59" xmlns="http://www.w3.org/2000/svg"><title>Group 20</title><g id="Page-1" fill="none" fill-rule="evenodd"><g id="01-classificados" transform="translate(-405 -912)" fill="#7EAC47" fill-rule="nonzero"><g id="Group-20" transform="translate(404 912)"><path d="M50.933 28.557H15.98a1.464 1.464 0 0 1-1.456-1.47v-5.883c0-.812.652-1.47 1.456-1.47h34.953c.801 0 1.456.658 1.456 1.47v5.882c0 .812-.655 1.471-1.456 1.471zm-33.497-2.941h32.04v-2.941h-32.04v2.94z" id="Shape" transform="rotate(-40 33.457 24.145)"/><path d="M5.02 54.214c-.274 0-.549-.082-.786-.244a1.48 1.48 0 0 1-.644-1.226V38.038c0-.812.64-1.47 1.43-1.47h20.034c.79 0 1.431.658 1.431 1.47v5.882c0 .588-.34 1.12-.867 1.353L5.585 54.097c-.18.076-.372.117-.564.117zm1.432-14.706v11.006l17.171-7.565v-3.44H6.452z" id="Shape" transform="rotate(-40 15.038 45.39)"/><path d="M52.051 7.043l-3.538-4.217c-.521-.622-.49-1.508.067-1.975.557-.467 1.435-.345 1.957.277l3.538 4.217 2.057-1.726c.63-.53 1.528-.508 1.997.052.47.56.335 1.446-.296 1.976l-9.174 7.698c-.63.529-1.528.508-1.997-.052-.47-.56-.335-1.447.296-1.976l5.093-4.274z" id="Combined-Shape"/><path d="M18.31 32.482c-.73 0-1.321-.692-1.321-1.544V27.85c0-.853.591-1.545 1.32-1.545.73 0 1.321.692 1.321 1.545v3.088c0 .852-.591 1.544-1.32 1.544z" id="Shape" transform="rotate(-40 18.31 29.394)"/><path d="M42.06 39.098h-8.585c-.79 0-1.431-.633-1.431-1.412V26.392c0-.78.641-1.412 1.43-1.412h8.587c.787 0 1.43.632 1.43 1.412v11.294c0 .78-.643 1.412-1.43 1.412zm-7.154-2.824h5.724v-8.47h-5.724v8.47z" id="Shape" transform="rotate(-40 37.768 32.039)"/><path d="M27.152 41.656c-3.888 0-5.627-2.838-5.627-5.647 0-.78.636-1.412 1.418-1.412.783 0 1.418.632 1.418 1.412 0 1.053.363 2.823 2.791 2.823.783 0 1.418.633 1.418 1.412 0 .78-.632 1.412-1.418 1.412z" id="Shape" transform="rotate(-40 25.048 38.126)"/></g></g></g></svg>