<svg width="41" height="55" xmlns="http://www.w3.org/2000/svg"><title>Fill 1</title><g id="Page-1" fill="none" fill-rule="evenodd"><g id="01-classificados" transform="translate(-413 -1145)" fill="#F9EA1D"><path d="M428.044 1156.744c.411.02 1.112.079 1.956.256a4.821 4.821 0 0 1-.338-.428l-.597-.867.21-.356c-.663-.232-1.252-.349-1.757-.349-.216 0-.387.023-.518.051l1.044 1.693zm2.956-1.035c.233.234.698.641 1.261.821.778.25 5.247 1.221 6.397 1.47l1.065-2.8-.296-1.93 1.573-4.134c-3.1-1.643-7.89-2.056-9.11-2.136l-.216 1.527h-.525l.16.275 1.783.405-.066.31c-.002.01-.209.998-.14 2.106.069 1.095-1.385 3.346-1.886 4.086zm4 2.291c.334.312.648.645.94 1a4.612 4.612 0 0 1 1.06-.403 253.74 253.74 0 0 1-2-.597zm5 .849c.331.045.665.095 1 .151l-.322-1-.678.849zm-13.63.151l.63-2.375-.379-.625-.621 1.917.219.874.026.098.125.111zm16.268-7c-.415 1.08-.638 2.323-.638 3.596 0 1.613.358 3.168 1 4.404l-.362-8zm-15.473 10.107A20.79 20.79 0 0 1 427 1162v.002l.165.105zm17.442.014c.725.576 1.537.879 2.359.879 2.776 0 5.034-3.364 5.034-7.5s-2.258-7.5-5.034-7.5c-1.076 0-2.099.5-2.966 1.447l.607 12.674zM428 1160.56a24.319 24.319 0 0 0 5.96 2.441l1.04-2.927c-1.964-1.654-4.935-2.001-6.118-2.073l-.882 2.559zm7 3.094a15.13 15.13 0 0 0 3.176.347c.258 0 .517-.007.774-.021l1.05-3.313c-.913-.442-1.779-.666-2.576-.666-.707 0-1.187.18-1.428.298l-.996 3.355zm2 1.347c.313.03.629.059.949.083l.051-.027c-.336-.014-.67-.033-1-.056zm1 4l1-2-.154.078L438 1169zm-5 16l2.533-.722 7.467-21.301a8.054 8.054 0 0 1-.8-.977l-1.19 2.541-.319.777-6.082 17.73-1.209.626-.4 1.326zm-13.893 1.844c.035.092.946 2.38 4.626 3.524 1.35.42 2.621.632 3.779.632 1.274 0 1.975-.265 2.044-.292l.054-.025 7.39-24.068c-4.926-.646-8.7-2.6-10.388-3.615L419 1186.548l.107.296zm-.967 4.156c1.463 0 4.217.394 6.41 3 .98-.317 3.087-.911 5.125-.911l.306.005.019-.085-.403-.598c-.366.124-1.147.327-2.335.327-1.26 0-2.627-.23-4.064-.68-3.543-1.114-4.889-3.274-5.273-4.058l-.925.392c.347.535.875 1.517.938 2.61.064-.002.132-.002.202-.002zm-3.14 3c.025.13.113.496.39 1l.575-2.997c.112-.691-.061-1.446-.248-2.003l-.717 4zm1 1.244c.934.694 2.148 1.34 3.613 1.922.903.359 1.807.633 2.754.834l.633-3.27c-1.914-2.372-4.372-2.73-5.679-2.73-.159 0-.3.005-.416.013l-.761 2.697-.144.534zm8 2.656c.534.067 1.062.1 1.571.1 1.37 0 2.325-.23 2.678-.332L429 1194c-1.782.01-3.706.62-4.455.883L424 1197.9zm1.888 2.1c-2.159 0-4.34-.422-6.485-1.254-2.376-.922-4.141-2.004-5.246-3.217-.902-.989-1.086-1.753-1.124-2.035l-.033-.25 1.623-6.011 2.621-1.101 7.82-24.21-.502-2.702-.289-.967 1.822-4.712.065-.052c.18-.144.713-.476 1.782-.476.751 0 1.616.166 2.575.494.725-1.191 1.112-2.113 1.103-2.313a9.58 9.58 0 0 1 .008-1.238l-.973-.224-1.833-3.189h1.839l.216-1.543 1.11.047c.294.013 7.27.34 10.816 3.02l.29.218c1.18-1.116 2.57-1.704 4.036-1.704 3.789 0 6.871 4 6.871 8.918 0 4.916-3.082 8.917-6.87 8.917-1.034 0-2.057-.304-2.982-.883l-7.64 21.459-4.276 1.2-1.518 4.95.928 1.36-1.534 6.83-.666.217c-.055.018-1.404.451-3.554.451z" id="Fill-1"/></g></g></svg>