<?xml version="1.0" encoding="utf-8"?>
<!-- Generator: Adobe Illustrator 22.1.0, SVG Export Plug-In . SVG Version: 6.00 Build 0)  -->
<svg version="1.1" xmlns="http://www.w3.org/2000/svg" xmlns:xlink="http://www.w3.org/1999/xlink" x="0px" y="0px" height="800px" width="800px"
	 viewBox="0 0 303.3 303.3" style="enable-background:new 0 0 303.3 303.3;" xml:space="preserve">
<style type="text/css">
	.st0{fill:#D5A449;}
	.st1{fill:#862623;}
	.st2{fill:#2B2724;}
	.st3{fill:#8D5F2A;}
	.st4{fill:#CC9F53;}
</style>
<g id="Layer_1">
</g>
<g id="Layer_2">
	<g>
		<path class="st0" d="M0,151.6c0,83.7,67.9,151.6,151.6,151.6c83.7,0,151.6-67.9,151.6-151.6C303.3,67.9,235.4,0,151.6,0
			C67.9,0,0,67.9,0,151.6z"/>
		<path class="st1" d="M295.9,148.8c0,79.7-64.6,144.3-144.3,144.3C72,293.1,7.4,228.5,7.4,148.8C7.4,69.1,72,4.5,151.6,4.5
			C231.3,4.5,295.9,69.1,295.9,148.8z"/>
		<path class="st2" d="M270.5,159.3l-6.7-6.7l21.8-21.8c-0.6-5.4-1.4-10.8-2.6-16L245.8,152l-4.9-4.9c-1.4,48-40.9,86.7-89.3,86.7
			c-48.6,0-88.2-39-89.3-87.3l-39,39c10,31.2,31.1,57.5,58.6,74.2l-0.1,0c4.3,2.6,8.6,4.9,13.1,7c13.3,6.2,27.8,10.3,43.1,11.8
			l0.1-0.1c9,0.9,18,0.9,27,0l0.1,0.1c10.6-1.1,20.9-3.4,30.7-6.8c1.1-0.4,2.1-0.7,3.2-1.1c0.4-0.2,0.8-0.3,1.2-0.5
			c1.4-0.5,2.8-1.1,4.2-1.7c0.2-0.1,0.4-0.2,0.6-0.3c8.5-3.7,16.7-8.2,24.4-13.7l-0.1,0c31-22,52.3-56.6,56.3-96.4l-7-7L270.5,159.3
			z"/>
		<path class="st2" d="M62.4,142c1.4-48,40.9-86.7,89.3-86.7c48.6,0,88.2,39,89.3,87.3l39-39c-10-31.2-31.1-57.5-58.6-74.2l0.1,0
			c-4.3-2.6-8.6-4.9-13.1-7c-13.3-6.2-27.8-10.3-43.1-11.8l-0.1,0.1c-9-0.9-18-0.9-27,0l-0.1-0.1c-10.5,1.1-20.7,3.4-30.4,6.7
			c-1.2,0.4-2.3,0.8-3.5,1.2c-0.4,0.1-0.7,0.3-1.1,0.4c-1.4,0.6-2.9,1.1-4.3,1.8c-0.2,0.1-0.3,0.1-0.5,0.2
			c-8.5,3.7-16.7,8.2-24.5,13.7l0.1,0c-31,22-52.3,56.6-56.3,96.4l6.8,6.8l9.1-9.1l6.7,6.7l-9.1,9.1l0.1,0.1l-13.6,13.6
			c0.6,5.5,1.4,10.9,2.6,16.2l37.2-37.2L62.4,142z"/>
		<g>
			<path class="st2" d="M229.5,199.3c0,43.1-34.9,78-78,78c-43.1,0-78-34.9-78-78c0-43.1,34.9-78,78-78
				C194.5,121.3,229.5,156.3,229.5,199.3z"/>
			<path class="st3" d="M216.2,190.5c0,35.7-29,64.7-64.7,64.7c-35.7,0-64.7-29-64.7-64.7c0-35.7,29-64.7,64.7-64.7
				C187.2,125.8,216.2,154.8,216.2,190.5z"/>
			<path class="st0" d="M206.6,182.8c0-30.4-24.7-55.1-55.1-55.1c-30.4,0-55.1,24.7-55.1,55.1l0,0.1l0,0.1
				c0,30.4,24.7,55.1,55.1,55.1c30.4,0,55.1-24.7,55.1-55.1V182.8L206.6,182.8z"/>
			<path class="st3" d="M122.2,207.6c0,0-8.7,6.7-19.3,7.2l7.5,7.4l17.6-10.6L122.2,207.6z"/>
			<path class="st3" d="M180.8,207.6c0,0,8.7,6.7,19.3,7.2l-7.5,7.4L175,211.6L180.8,207.6z"/>
			<path class="st3" d="M178.8,214.9c0,0,15.1-21.7,32.1-31.3v-6.5c0,0-26.7,11.5-39.2,34.1L178.8,214.9z"/>
			<path class="st3" d="M124.1,214.9c0,0-15.1-21.7-32.1-31.3v-6.5c0,0,26.7,11.5,39.2,34.1L124.1,214.9z"/>
			<path class="st3" d="M100.4,161.7c0,0,25.1,3.5,56.5,27l-8,7.1c0,0-14.4-23.6-50.9-31.3L100.4,161.7z"/>
			<path class="st3" d="M202.5,161.7c0,0-25.1,3.5-56.5,27l8,7.1c0,0,14.4-23.6,50.9-31.3L202.5,161.7z"/>
			<path class="st3" d="M173.3,147.8c1.5-4.1,5.4-6.3,10-6.3c3.2,0,7.1,2.2,9.1,4.4l1.5-4.2c0,0-5.9-5.4-15-4.5
				C169.9,138.1,173.3,147.8,173.3,147.8z"/>
			<path class="st3" d="M129.6,147.8c-1.5-4.1-5.4-6.3-10-6.3c-3.2,0-7.1,2.2-9.1,4.4l-1.5-4.2c0,0,5.9-5.4,15-4.5
				C133,138.1,129.6,147.8,129.6,147.8z"/>
			<path class="st2" d="M209.3,110c3.9-8.1,3.2-15.1,3.2-15.1c-3.1-1.1-7.5-1.8-7.5-1.8c0.3-4.7-0.8-28.3-53.4-42.9l0,1l-0.1-1
				C98.8,64.8,97.7,88.3,98,93c0,0-4.5,0.8-7.5,1.8c0,0-0.7,7,3.2,15.1c-12.2,27.1,5.8,37.7,5.8,37.7l10.3-6.7c0,0,6.5-6.3,14.8-0.2
				c4.8,3.5,5.7,9.1,5.7,9.1s8.8,2,19,2.3v0c0.7,0,1.5,0,2.2,0h0h0c5,0,9.9-0.5,13.6-1v0c4.5-0.6,7.6-1.3,7.6-1.3s0.9-5.5,5.7-9.1
				c8.3-6.1,14.8,0.2,14.8,0.2l10.3,6.7C203.5,147.7,221.5,137.1,209.3,110z"/>
			<path class="st3" d="M101,121.3c2.1,2.2,3.9,9.5,2.3,13.2c0,0-9.9-5.3-6.4-19.8C96.9,114.7,98.9,119.1,101,121.3z"/>
			<path class="st3" d="M206.1,114.7c3.4,14.5-6.4,19.8-6.4,19.8c-1.6-3.7,0.2-11,2.4-13.2C204.1,119.1,206.1,114.7,206.1,114.7z"/>
			<path class="st3" d="M204.9,97.9c0,0,0.6,9.9-6.7,17c-7.3,7.1-6.2,18.4-6.2,18.4s-9.7-2.2-20.9,2.9c-11.2,5-17.1-11.3-17.1-11.3
				h-2.6h-2.6c0,0-5.9,16.4-17.1,11.3c-11.2-5.1-20.9-2.9-20.9-2.9s1.1-11.3-6.2-18.4c-7.3-7.1-6.7-17-6.7-17s16.3-4.6,29.8-3.2
				c0,0-5.1-3-18.2-3c0-0.3,0.1-21.8,41.9-37.2c41.7,15.4,41.9,36.9,41.9,37.2c-13.2,0-18.2,3-18.2,3
				C188.7,93.4,204.9,97.9,204.9,97.9z"/>
			<path class="st2" d="M148.9,110.5c0,0-10.5-3.6-15.4-6.9c-4.9-3.3-17.2-5.7-28.8-1.5c0,0,1.4,5.1,5.8,9.9
				c4.4,4.8,6.8,10.1,6.8,14c0,0,3-5.4,2.6-10.3c0,0,7.9,2.1,15.6,2.2c0,0,5.8,3.1,1.5,8.9l2.5,1.6c0,0,9.9-6,5.4-16.3
				C144.8,112.1,147.7,111.4,148.9,110.5z"/>
			<path class="st2" d="M154.1,110.5c0,0,10.5-3.6,15.4-6.9c4.9-3.3,17.2-5.7,28.8-1.5c0,0-1.4,5.1-5.8,9.9
				c-4.4,4.8-6.8,10.1-6.8,14c0,0-3-5.4-2.6-10.3c0,0-7.9,2.1-15.6,2.2c0,0-5.8,3.1-1.5,8.9l-2.5,1.6c0,0-9.9-6-5.4-16.3
				C158.1,112.1,155.3,111.4,154.1,110.5z"/>
			<path class="st2" d="M176.9,80.3c0,0-7.3,11.1-25.4,0c-18.1,11.1-25.4,0-25.4,0c-2.8,4.7-3.3,9.4-3.3,9.4s7.3-0.3,14.7,5
				c8.9,6.5,14,6.5,14,6.5s5.2,0,14-6.5c7.4-5.4,14.7-5,14.7-5S179.7,85,176.9,80.3z"/>
			<path class="st2" d="M79.1,184.9c6.8-19.4,39.2,12.5,60.4,40c17.6,22.8,34,41,59.3,41.1c23.2,0.1,37.9-19.7,33.5-40.6
				c-2.8-13.4-13.6-26.4-13.6-26.4s-1.5,23.4-15.6,23.6c-16.9,0.3-40.3-22.7-53.7-34.1c-13.4-11.3-48.2-38.1-70.2-26
				c-8.1,4.5-10,10.5-8.7,14.9C72.3,184.1,79.1,184.9,79.1,184.9z"/>
			<path class="st3" d="M221.4,213.3c0,0,3,15.8-9.6,20.4c-17.7,6.6-42.5-16.1-61.8-33.4c-26.7-24-48.7-37.7-62.9-34.7
				c-9.8,2-10.2,8.1-10.2,8.1s8.3-12.6,35.8,6.3c27.5,18.9,49.2,55.7,72.1,67.6c23,11.9,38.1,2.3,40.6-10.6
				C228,224.1,221.4,213.3,221.4,213.3z"/>
			<path class="st2" d="M223.9,184.9c-6.8-19.4-39.2,12.5-60.4,40c-17.6,22.8-34,41-59.3,41.1c-23.2,0.1-37.9-19.7-33.5-40.6
				c2.8-13.4,13.6-26.4,13.6-26.4s1.5,23.4,15.6,23.6c16.9,0.3,40.4-22.7,53.7-34.1c13.4-11.3,48.2-38.1,70.2-26
				c8.1,4.5,10,10.5,8.7,14.9C230.6,184.1,223.9,184.9,223.9,184.9z"/>
			<path class="st3" d="M81.5,213.3c0,0-3,15.8,9.6,20.4c17.7,6.6,42.5-16.1,61.8-33.4c26.7-24,48.6-37.7,62.9-34.7
				c9.8,2,10.2,8.1,10.2,8.1s-8.3-12.6-35.8,6.3c-27.5,18.9-49.2,55.7-72.1,67.6C95.2,259.4,80,249.8,77.5,237
				C75,224.1,81.5,213.3,81.5,213.3z"/>
			<path class="st0" d="M178.3,111.5c0,0.3,0,0.6-0.1,0.8c-2.9,1-6.1,1.6-9.5,1.8c-0.9-0.7-1.4-1.6-1.4-2.6c0-0.5,0.2-1,0.4-1.5
				c2.7-0.9,9.1-2.5,12.2-2.6C181,108.1,178.3,110.3,178.3,111.5z"/>
			<path class="st0" d="M136.2,111.1c0-0.3,0-0.6-0.1-0.8c-2.9-1-9.6-2.7-13-2.8c-0.9,0.7,2.1,2.7,2.1,3.7c0,0.5,0.2,1,0.4,1.5
				c2.7,0.9,5.6,1.4,8.7,1.5C135.4,113.4,136.2,112.3,136.2,111.1z"/>
		</g>
		<g>
			
				<rect x="1.2" y="142.8" transform="matrix(0.7072 -0.707 0.707 0.7072 -101.0154 49.7929)" class="st4" width="16.9" height="8.1"/>
			
				<rect x="285.2" y="138.6" transform="matrix(0.7071 -0.7071 0.7071 0.7071 -14.8377 249.4176)" class="st4" width="16.9" height="8.1"/>
		</g>
		<g>
			<g>
				<path class="st0" d="M69.4,57.1l-3.9-3.2L52.7,69.4c-5.8,7-4.4,12.2,2,17.5c6.4,5.3,11.8,5.6,17.6-1.4L85.1,70l-3.9-3.2
					L68.4,82.3c-3.2,3.8-5.5,3.8-8.4,1.9l16.8-20.4l-3.7-3L56.4,81.2c-2.4-2.4-2.9-4.8,0.3-8.6L69.4,57.1z"/>
				<path class="st0" d="M106.4,34.5L106.4,34.5c2.5-0.7,2.8-0.4,11.4,5.9c9.2,6.7,11.6,8.1,17.6,6.3l3.6-1.1l-7.2-24.3l-5.1,1.5
					l5.7,19.2l0,0c-2.6,0.8-3.2,0.3-11.4-5.9c-8.7-6.7-11.1-8.2-17.6-6.3l-3.6,1.1l7.2,24.3l5.1-1.5L106.4,34.5z"/>
				<path class="st0" d="M203.4,31.4l-19.2-6c-8.7-2.7-13,0.5-15.5,8.5c-2.5,8-0.8,13,7.9,15.8l19.2,6l1.5-5l-19.2-6
					c-5.8-1.8-5.7-4.5-4.3-9.2c1.4-4.6,2.9-7,8.8-5.2l19.2,6L203.4,31.4z"/>
				<path class="st0" d="M252.4,80.8l3.9-3.2l-12.9-15.4c-5.8-7-11.2-6.6-17.6-1.2c-6.4,5.4-7.7,10.6-1.9,17.5l12.9,15.4l3.9-3.3
					l-12.9-15.4c-3.2-3.8-2.7-6.1-0.4-8.6l17,20.3l3.6-3.1l-17-20.3c2.8-1.9,5.2-2,8.4,1.8L252.4,80.8z"/>
			</g>
		</g>
	</g>
</g>
</svg>
