<?xml version="1.0" encoding="utf-8"?>
<!-- Generator: Adobe Illustrator 23.0.6, SVG Export Plug-In . SVG Version: 6.00 Build 0)  -->
<svg version="1.1" id="Layer_1" xmlns="http://www.w3.org/2000/svg" xmlns:xlink="http://www.w3.org/1999/xlink" x="0px" y="0px"
	 viewBox="0 0 800 800" style="enable-background:new 0 0 800 800;" height="800" width="800" xml:space="preserve">
<style type="text/css">
	.st0{fill:#11294B;}
</style>
<g>
	<path id="Ring_2_" class="st0" d="M446.5,130.4C227.7,92.3,29.2,182.4,3.4,331.6S134,632.4,352.9,670.3
		c218.9,37.9,417.3-52.2,443.1-201.2C821.8,319.9,665.4,168.3,446.5,130.4z M758.9,452.2C735.4,587.3,555.6,669,357.3,634.7
		C158.9,600.3,17.1,462.8,40.6,327.7C64,192.5,243.8,110.9,442.1,145.3C640.5,179.7,782.3,317.1,758.9,452.2z"/>
	<path id="G_5_" class="st0" d="M606,234.7l-226.5,72.3l89,97l103.9-35.7c0,0,19.9,44.6-45.5,88.1l105,113.7
		c0,0,117.8-52.4,92.9-189.9C724.7,380.1,705,292.1,606,234.7z"/>
	<path id="G_4_" class="st0" d="M423,258.4l144.4-44.6c0,0-135.4-82.1-307.7-40.5l77.1,87.1C336.9,260.5,369.6,250.4,423,258.4z"/>
	<path id="E_2_" class="st0" d="M326,452.4l108.9-38.6l-87.1-99l-103.9,32.7c0.9-54.4,61.3-78.2,61.3-78.2L229,181.1
		C45.1,237.4,72.7,382.9,72.7,382.9c26.8,133.8,202,198.1,202,198.1c162.2,68.2,315.7,8.9,315.7,8.9L484.5,469.1
		C402.2,487,326,452.4,326,452.4z"/>
</g>
</svg>
