<?xml version="1.0" encoding="utf-8"?>
<!-- Generator: Adobe Illustrator 22.0.1, SVG Export Plug-In . SVG Version: 6.00 Build 0)  -->
<svg version="1.1" id="Layer_1" xmlns="http://www.w3.org/2000/svg" xmlns:xlink="http://www.w3.org/1999/xlink" x="0px" y="0px" height="800px" width="800px"
	 viewBox="0 0 40 40" style="enable-background:new 0 0 40 40;" xml:space="preserve">
<style type="text/css">
	.st0{fill:#F59B09;}
</style>
<g>
	<path id="XMLID_8_" class="st0" d="M21,14.3c0,0-0.8-4,0-5.4C21.7,7.6,24,7.6,24,7.6s1.5-0.1,3.2,0.1C33.5,8.3,37.5,10,37.5,10
		s3.2,1.1,2.4,3.5c-0.2,0.6-0.6,1.5-1.7,1.9c-0.1,0-0.2,0-0.2-0.1l-0.2-0.7c-0.1-0.1-0.6-0.3-1-0.5h0c-2.6-1-7.7-1.5-9.1-1.6
		c-2.2-0.1-1.9-0.4-1.5,1.6c1.5,6.1,4.3,10.6,6.3,13.1l0,0c1.1,1.2,2.4,1.2,3.3,0.5c0,0,0.8-0.4,1,0.5c0.3,0.8,1.2,3.4-0.1,7.1
		c-0.2,0.5-0.4,1.1-0.7,1.3c-0.2,0.1-0.4,0-0.6-0.1c-4-2.6-8.1-8.1-8.1-8.1C21.9,21.3,20.9,14,20.9,14l0,0"/>
	<path id="XMLID_7_" class="st0" d="M20,20.5c-1,0-1.4,0.5-1.4,1.3c-0.4,4.4-0.5,11.9,0,13.7c0.3,1.2,1.3,1.1,1.3,1.1h0.2
		c0,0,1.2,0,1.4-1.1c0.3-1.8,0.3-8.1,0-13.6C21.4,21.1,21,20.5,20,20.5"/>
	<path id="XMLID_6_" class="st0" d="M19.8,7.3c0.7,0.1,1.6-0.4,1.9-1.3c0.2-0.6,0.3-1.3-0.3-2.1c-0.7-0.9-2-0.5-2-0.5
		s-1.2,0.3-1.3,1.4C18,5.2,18,7.1,19.8,7.3"/>
	<path id="XMLID_5_" class="st0" d="M19,14.3c0,0,0.8-4,0-5.4s-3.1-1.3-3.1-1.3c-0.9,0-1.9,0-3.2,0.1C8.9,8,4.2,9.1,2.5,10
		c0,0-3.2,1.1-2.4,3.5c0.2,0.6,0.6,1.4,1.6,1.9c0.1,0,0.2,0,0.2-0.1l0.3-0.8c0.1-0.1,0.5-0.2,1-0.4h0c2.6-1,7.7-1.5,9.1-1.6
		c2.2-0.1,1.9-0.3,1.4,1.7c-0.4,1.8-1.5,4.7-1.5,4.7c-0.6,1.7-4.6,2.7-5,2.9c0,0-1.4,0.5-1.9,1.8C5.1,24.2,5,24.5,5,24.5
		c-0.1,0.2,0.1,0.5,0.6,0.4L9.8,24c0,0-0.6,0.9-0.6,0.9s-0.6,0.9-0.9,1.3c0,0-0.7,1-0.9,1.2c-1,1.2-2.4,1.1-3.4,0.5
		c0,0-0.6-0.4-0.8,0.5c-0.3,0.8-1.3,3.4,0,7.1c0.2,0.5,0.4,1.1,0.7,1.2c0.2,0.3,0.4,0.1,0.6-0.1c2.9-2.2,6.2-5.4,9-9.3
		c3-4.2,4.3-8.9,4.3-8.9C18.3,17.2,18.8,15,19,14.3"/>
</g>
</svg>
