<?xml version="1.0" encoding="utf-8"?>
<!-- Generator: Adobe Illustrator 22.0.1, SVG Export Plug-In . SVG Version: 6.00 Build 0)  -->
<svg version="1.1" id="Layer_2" xmlns="http://www.w3.org/2000/svg" xmlns:xlink="http://www.w3.org/1999/xlink" x="0px" y="0px" height="800px" width="800px"
	 viewBox="0 0 113.4 113.4" style="enable-background:new 0 0 113.4 113.4;" xml:space="preserve">
<style type="text/css">
	.st0{fill:none;}
	.st1{fill:#101820;}
</style>
<g>
	<g>
		<path class="st0" d="M25.6,48.7v0.7h0.8v-0.7h0.2v1.6h-0.2v-0.7h-0.8v0.7h-0.2v-1.6H25.6z"/>
		<path class="st0" d="M26.9,48.7h0.2v1.4h0.7v0.2h-0.9V48.7z"/>
		<path class="st0" d="M28.1,48.9h-0.5v-0.2h1.2v0.2h-0.5v1.4h-0.2V48.9z"/>
		<path class="st0" d="M29.4,50.3l-0.5-1.6h0.2l0.2,0.8c0.1,0.2,0.1,0.4,0.2,0.6h0c0-0.2,0.1-0.4,0.2-0.6l0.3-0.8h0.2l-0.6,1.6H29.4
			z"/>
		<path class="st0" d="M30.2,50.2c0-0.1,0.1-0.1,0.1-0.1c0.1,0,0.1,0.1,0.1,0.1c0,0.1-0.1,0.1-0.1,0.1
			C30.3,50.3,30.2,50.3,30.2,50.2z"/>
		<path class="st0" d="M31.8,49.7c0,0.4-0.3,0.6-0.6,0.6c-0.3,0-0.5-0.2-0.5-0.6c0-0.4,0.2-0.6,0.6-0.6
			C31.5,49.1,31.8,49.4,31.8,49.7z M30.9,49.7c0,0.2,0.1,0.4,0.3,0.4c0.2,0,0.3-0.2,0.3-0.4c0-0.2-0.1-0.4-0.3-0.4
			C31,49.3,30.9,49.5,30.9,49.7z"/>
		<path class="st0" d="M32,49.5c0-0.1,0-0.2,0-0.4h0.2l0,0.2h0c0.1-0.2,0.2-0.2,0.3-0.2c0,0,0,0,0.1,0v0.2c0,0,0,0-0.1,0
			c-0.1,0-0.2,0.1-0.3,0.3c0,0,0,0.1,0,0.1v0.6H32V49.5z"/>
		<path class="st0" d="M33.7,49.2c0,0.1,0,0.2,0,0.3v0.7c0,0.3-0.1,0.4-0.2,0.5c-0.1,0.1-0.3,0.1-0.4,0.1c-0.1,0-0.3,0-0.4-0.1
			l0.1-0.2c0.1,0,0.2,0.1,0.3,0.1c0.2,0,0.4-0.1,0.4-0.4v-0.1h0c-0.1,0.1-0.2,0.2-0.4,0.2c-0.3,0-0.5-0.2-0.5-0.6
			c0-0.4,0.3-0.6,0.5-0.6c0.2,0,0.3,0.1,0.4,0.2h0l0-0.2H33.7z M33.5,49.6C33.5,49.6,33.5,49.6,33.5,49.6c0-0.2-0.1-0.3-0.3-0.3
			c-0.2,0-0.3,0.2-0.3,0.4c0,0.2,0.1,0.4,0.3,0.4c0.1,0,0.2-0.1,0.3-0.2c0,0,0-0.1,0-0.1V49.6z"/>
	</g>
	<path class="st1" d="M98.8,45.6l-6.5,4.2c-0.5,0.3-0.8,0.8-1,1.3l-7.7,26.1h10.6l6.8-23.1c0.2-0.5,0.6-0.9,1.2-0.9h4.5l6.5-7.7
		H99.3C99.1,45.4,98.9,45.5,98.8,45.6z"/>
	<path class="st1" d="M46.1,45.7c-0.2-0.2-0.5-0.3-0.8-0.3H5.4l1.9,7.7l-7.1,24h11l7-23.7c0.1-0.2,0.3-0.4,0.5-0.4h4.8
		c0.3,0,0.6,0.3,0.5,0.7l-6.9,23.3h10.6l7-23.7c0.1-0.2,0.3-0.4,0.5-0.4h5c0.3,0,0.6,0.3,0.5,0.7l-6.7,23.3h10.6l7.6-25.8
		c0.2-0.7-0.1-1.5-0.7-2L46.1,45.7z"/>
	<path class="st1" d="M84.6,49.6l-4.8-4c-0.2-0.2-0.4-0.2-0.7-0.2h-8.9l3.9-13.2H64L50.8,77.2h23.8c1.8,0,3.3-1.2,3.8-2.8l6.8-22.9
		C85.3,50.7,85.1,50.1,84.6,49.6z M63.2,69.4L68,53.2h5c0.4,0,0.8,0.4,0.6,0.9l-4.4,14.9c-0.1,0.3-0.3,0.5-0.6,0.5H63.2z"/>
	<g>
		<path class="st1" d="M57.5,32.2H46.7l-1.8,6.1l3.1,2.5c0.1,0.1,0.2,0.1,0.4,0.1h5c0.2,0,0.5-0.1,0.6-0.2l1.2-1
			c0.1-0.1,0.2-0.3,0.3-0.4L57.5,32.2z"/>
	</g>
</g>
</svg>
