<?xml version="1.0" encoding="utf-8"?>
<!-- Generator: Adobe Illustrator 22.0.1, SVG Export Plug-In . SVG Version: 6.00 Build 0)  -->
<svg version="1.1" id="Layer_1" xmlns="http://www.w3.org/2000/svg" xmlns:xlink="http://www.w3.org/1999/xlink" x="0px" y="0px" height="800px" width="800px"
	 viewBox="0 0 755 755" style="enable-background:new 0 0 755 755;" xml:space="preserve">
<style type="text/css">
	.st0{fill:none;}
	.st1{fill:#FFFFFF;}
	.st2{fill:#FFF200;}
</style>
<g>
	<g>
		<g>
			<polygon class="st0" points="332.1,395.6 338.1,356.6 328.7,356.6 326.3,371.7 313.9,371.7 316.3,356.6 306.2,356.6 300,395.6 
				310.1,395.6 312.6,380.1 325,380.1 322.6,395.6 			"/>
			<polygon class="st0" points="355.3,387.1 344.5,387.1 349.4,356.6 339.9,356.6 333.8,395.6 353.9,395.6 			"/>
			<g>
				<polygon class="st0" points="378.4,356.6 353.1,356.6 351.7,365.2 360.1,365.2 356.7,387.1 356.7,387.1 355.3,395.6 
					355.3,395.6 355.3,395.6 365.5,395.6 370.3,365.2 377,365.2 				"/>
				<polygon class="st0" points="405.3,356.6 392.1,380.4 386.5,356.6 380,356.6 379.6,356.6 378,366.8 385.6,395.6 393.5,395.6 
					416.4,356.6 				"/>
			</g>
		</g>
		<g>
			<path class="st0" d="M411.7,392.9c-0.3,2.1-2.3,3.8-4.4,3.8s-3.6-1.8-3.2-3.8c0.3-2.1,2.3-3.8,4.4-3.8S412.1,390.8,411.7,392.9z"
				/>
			<path class="st0" d="M430.5,386.2c-0.8,5.2-3.3,10.6-9.5,10.6c-6,0-6.9-5.4-6-10.6c0.8-5.2,3.3-10.6,9.5-10.6
				C430.5,375.4,431.3,380.9,430.5,386.2z M420.8,386.2c-0.1,1.2-0.8,5.5,1.2,5.5c1.9,0,2.7-4.3,2.9-5.5s0.8-5.5-1.2-5.5
				S420.9,384.9,420.8,386.2z"/>
			<path class="st0" d="M440.3,375.9l-0.4,2.5h0.1c1.4-1.8,2.9-3,5.2-3.2l-0.8,5.5c-0.3,0-0.5-0.1-0.8-0.1c-3.8,0-4.3,2.5-4.7,5.5
				l-1.6,10.2h-6l3.2-20.3h5.8L440.3,375.9L440.3,375.9z"/>
			<path class="st0" d="M448.5,398.9c-0.1,1.2,0,2.9,1.6,2.9c2.5,0,2.7-3.8,3-5.6l0.4-2.6h-0.1c-0.5,0.7-1.1,1.5-1.6,2.1
				c-0.7,0.5-1.5,1-2.5,1c-2.1,0-3.2-1.6-3.8-3.4c-0.7-2.1-0.5-4.7-0.3-6.9c0.5-3.6,2.3-10.8,7.3-10.8c1.9,0,3,1.2,3.4,2.9h0.1
				l0.4-2.5h5.6l-3.6,22.1c-1,5.9-4,8.4-8.9,8.4c-4.8,0-6.6-2.7-6.2-7.4L448.5,398.9L448.5,398.9z M455.1,386
				c0.1-1.1,0.8-5.5-1.1-5.5s-2.7,4.3-2.9,5.5s-0.8,5.5,1.2,5.5C454.1,391.5,454.8,387.1,455.1,386z"/>
		</g>
	</g>
	<path d="M736.4,62.8c-9.2-11.5-24.7-16-38.9-14c-5.7,0.6-11.3,2.1-16.8,3.9C473.9,120.4,267,187.7,60.2,255.5
		C28.1,266.3,5.4,298.1,5.8,332c1.3,106.7,3.1,213.5,4.7,320.2c0.3,22.1,9.2,47.7,31.7,56.1c22.4,9.1,45.2-2.8,66.4-9.6
		c195.6-66.6,391.3-133.2,586.9-199.8c16.9-5.4,33.3-15.5,42-31.5c9.6-17,10.7-37,10.7-56.1c0.4-100.9,1.2-201.7,1.6-302.6
		C749.6,92.9,746.9,75.6,736.4,62.8z"/>
	<g>
		<path class="st1" d="M700.1,46.1c14.3-2,30,2.6,39.2,14.1c10.6,12.9,13.3,30.3,13.5,46.5c-0.4,101.7-1.2,203.3-1.6,305
			c0,19.2-1.2,39.4-10.8,56.5c-8.8,16-25.3,26.3-42.4,31.7C500.8,567,303.6,634.1,106.4,701.3c-21.4,6.8-44.3,18.8-66.9,9.6
			c-22.6-8.5-31.6-34.2-31.9-56.5C6,546.8,4.2,439.2,2.9,331.6c-0.4-34.1,22.5-66.3,54.8-77.1c208.4-68.3,417-136.2,625.5-204.5
			C688.6,48.2,694.3,46.7,700.1,46.1z M703.1,53.1c-13.4,1.1-25.7,6.9-38.4,10.7c-199,65-398,130-597,195
			c-25.4,6.8-48.2,26.2-54.6,52.3c-5.2,18.1-2.3,37.2-2.6,55.7c1.4,92.7,2.8,185.4,4.1,278.1c-0.1,17,1.6,35.6,13,49.1
			c11.5,13.8,31.7,15.7,47.8,10.3c207.1-70.5,414.2-141,621.3-211.5c14.2-4.7,28-13,36.1-26c9.5-15.5,10.9-34.2,11.1-52
			c0.2-104.8,1.7-209.6,1.4-314.4C746.1,76.9,729.8,49.1,703.1,53.1z"/>
	</g>
	<path class="st1" d="M667.4,402.9c9.6-3.1,19-6.7,28.7-9.5c1,2.3,1.7,4.6,2.3,7c-7.2,2.4-14.3,4.9-21.5,7.2c2,5.9,3.9,11.9,6,17.8
		c5.9-1.9,11.7-4,17.6-5.9c1.2,2.3,2.2,4.7,2.3,7.3c-5.8,2-11.7,3.9-17.5,6c2,5.9,4,11.8,6,17.7c7.2-2.3,14.3-4.9,21.5-7.2
		c1,2.3,1.9,4.7,2.2,7.2c-9.5,3.3-19,6.7-28.6,9.6C680.1,441.1,673.5,422.1,667.4,402.9z"/>
	<g>
		<path class="st1" d="M619.8,418.7c8.4-1.9,17.3-9,25.8-3.7c10.4,4.9,12.5,20.5,4.2,28.2c6,7.7,12.4,15.2,18.2,23.1
			c-12.8,7.6-17.4-12.6-25.8-19.1c-1.4,0.5-2.8,1-4.2,1.4c2.7,8.4,5.8,16.6,8.3,25.1c-2.3,0.8-4.6,1.7-6.9,2.4
			C632.4,457.2,626.3,437.9,619.8,418.7z M629.5,423.6c1.9,5.9,4,11.8,6,17.8c6.7-0.8,14-6.6,10.9-14
			C643.8,420.2,635.1,420.4,629.5,423.6z"/>
	</g>
	<path class="st1" d="M572.9,434.8c9.6-3.2,19.1-6.7,28.8-9.5c0.9,2.3,1.7,4.6,2.2,7c-7.1,2.5-14.3,4.8-21.4,7.3
		c1.9,5.9,4,11.8,6,17.8c6-1.9,11.8-4.2,17.8-5.8c1,2.3,1.8,4.6,2.3,7.1c-5.8,2.2-11.8,4.1-17.6,6c1.9,6,3.9,11.8,6,17.7
		c7.2-2.3,14.2-4.9,21.5-7.1c1.1,2.3,1.8,4.7,2.4,7.1c-9.4,3.5-19,6.5-28.6,9.7C585.5,473.1,579.3,453.9,572.9,434.8z"/>
	<path class="st1" d="M534.3,449.3c7.3-7.9,22.2-4.6,25.2,5.9c-2.3,1-4.6,1.7-6.9,2.4c-3-7.7-15.9-5.7-14.9,3.1
		c3.2,10.9,7,21.6,10.8,32.2c4.7,7.2,16.1,1.2,13.8-6.9c2.3-0.8,4.5-1.5,6.9-2.2c7.2,17.7-22,28.4-28.3,10.8
		C538.3,480,523.4,463.3,534.3,449.3z"/>
	<path class="st1" d="M499.8,459.2c2.3-0.8,4.6-1.6,7-2.4c6.9,19,13,38.2,19.5,57.3c-2.2,1.2-4.6,1.9-7,2.4
		c-9-10.4-17.7-21.1-26.7-31.5c3.9,12.2,8.4,24.3,12.1,36.6c-2.3,0.8-4.6,1.6-7,2.4c-6.8-19-13-38.2-19.5-57.3
		c2.2-1.1,4.5-1.9,6.9-2.6c9.1,10.4,17.8,21.2,26.8,31.7C508.1,483.6,503.6,471.5,499.8,459.2z"/>
	<path class="st1" d="M431,482.5c9.5-3.2,19-6.6,28.6-9.5c1,2.3,1.8,4.6,2.4,7c-3.5,1.4-7.1,2.5-10.6,3.7
		c4.8,14.3,9.7,28.5,14.4,42.8c3.5-1.2,7-2.5,10.6-3.5c1.1,2.2,1.9,4.6,2.5,7.1c-9.5,3.4-19,6.7-28.6,9.6c-0.9-2.3-1.7-4.7-2.4-7.1
		c3.5-1.3,7.1-2.4,10.6-3.6c-4.8-14.3-9.6-28.6-14.5-42.9c-3.5,1.2-7,2.6-10.6,3.5C432.4,487.4,431.7,485,431,482.5z"/>
	<path class="st1" d="M406.3,490.8c2.3-1.1,4.8-1.8,7.3-2.4c2.9,20.3,5.7,40.7,8.2,61.1c-2.1,1-4.4,1.7-6.7,2.2
		c-10.4-17.7-20.4-35.7-30.5-53.5c2.5-0.7,5-2.9,7.7-1.9c6.4,10.4,11.5,21.7,18.6,31.6C409.9,515.5,407.7,503.2,406.3,490.8z"/>
	<g>
		<path class="st1" d="M333.2,503.2c34.1-4.6,61.9,35.5,45.8,65.8c-13.2,31.2-61,35.5-79.4,7C278.4,548.9,298.9,504.6,333.2,503.2z
			 M330.1,506.1c-22.1,3.2-39.1,25.4-36.2,47.6c1.8,21,20.7,38.7,41.8,39.1c29.3,2.2,53.5-30.2,42.9-57.6
			C372.2,515.5,350.5,502.3,330.1,506.1z"/>
	</g>
	<path class="st1" d="M337,523.4c-8-2.2-1.6-22.4,4.5-11c-6.2-3.8-6.5,2.9-5.6,8.5c0.5,0.2,1.5,0.6,1.9,0.8c0.4-0.4,1.2-1.2,1.7-1.6
		l-2.1-0.3c0-0.5,0.1-1.4,0.1-1.9c1,0,2.9,0,3.9,0C341.5,520.4,340.2,523.8,337,523.4z"/>
	<path class="st1" d="M320.4,512.4c2.3-0.9,4.6-1.7,6.9-2.5c0.1,0.4,0.4,1.4,0.6,1.8c-0.6,0.2-1.9,0.7-2.5,1c1.2,3.3,2.4,6.7,3.6,10
		c0.8-0.3,1.7-0.6,2.5-0.9c0.2,0.4,0.5,1.4,0.7,1.8c-2.4,0.9-4.8,1.8-7.3,2.5c-0.3-1.6,0.4-2.6,2.1-2.9c-1.2-3.3-2.4-6.6-3.5-9.9
		c-0.7,0.2-2,0.6-2.6,0.8L320.4,512.4z"/>
	<g>
		<path class="st1" d="M342.4,524c3-4.1,4.4-11.7,9.2-13c-1.4,4.8,0,11.6-3.4,15c-0.2-0.7-0.5-2.2-0.7-2.9
			C345.7,522.6,344.1,523.8,342.4,524z"/>
	</g>
	<path class="st1" d="M309.1,520.1c1.9-1.7,3.9-3.3,6-4.8c1.1,1.4,0.3,2.5-1,3.5c1.7,3.7,8.6,7.1,6.6,11.1c-2.9-3.2-5.5-6.7-8.2-10
		c-0.7,0.6-1.4,1.1-2.1,1.7C310.1,521.2,309.5,520.5,309.1,520.1z"/>
	<path class="st1" d="M350.7,526.9c3.1-4,6.1-8,9.4-11.8c1.5,1.1,1.5,2.7,1.1,4.4c1.5-0.8,3.1-1,4.5,0.2c-3.1,3.9-6.1,7.9-9.4,11.7
		c-2.6-3.3,4.1-6.6,5.4-9.8c-1,0.4-2,0.7-3,1.1c0.1-0.8,0.3-2.4,0.4-3.2C356.2,521.4,354.6,528.6,350.7,526.9z"/>
	<path class="st1" d="M368.4,526l1.7-1c0.7,2.4,5.5,5.6,2.3,7.4c-0.4-0.6-1.1-1.8-1.5-2.4c-3,1.8-6,3.7-9,5.5c0.4,0.6,1,1.8,1.4,2.4
		c-0.4,0.2-1.3,0.7-1.7,0.9c-0.6-2.3-5.4-5.5-2.3-7.4c0.4,0.6,1.2,1.8,1.5,2.4c3-1.8,6-3.7,9-5.5C369.4,527.5,368.9,526.8,368.4,526
		z"/>
	<path class="st1" d="M302.4,528.8c0.3-0.4,0.9-1.2,1.1-1.7c3.4,2.4,6.9,4.8,10.3,7.3c1-1.5,2.1-2.9,3.1-4.4c0.4,0.3,1.2,0.8,1.6,1
		c-1.4,2.1-2.8,4.1-4.2,6.1C310.3,534.4,306.4,531.6,302.4,528.8z"/>
	<path class="st1" d="M298.5,536.4c3.5-2.8,19,1.8,12.2,8.2c-4-0.1-12.1-0.5-13.1-4.6c4.2,0,9.7,4.6,13.1,1.7
		C309,537.6,302.2,538.7,298.5,536.4z"/>
	<path class="st1" d="M362.2,540.5c4.9-1,9.7-2.1,14.6-2.9c0,3.9-5.6,4.5-7.9,7c2.9-0.6,5.8-1.2,8.7-1.8c0.1,0.5,0.4,1.4,0.5,1.9
		c-5,0.5-10.3,3.5-15.2,2.1c2.3-2.6,5.6-4.1,8.4-6.1c-2.9,0.5-5.7,1.1-8.6,1.7C362.5,541.9,362.3,540.9,362.2,540.5z"/>
	<path class="st1" d="M322.8,540.8c2.8-0.8,11.7,0.8,4.6,2c0,4.2,0,8.3,0,12.5c-0.5,0-1.4,0-1.9,0c0-4.2,0-8.4,0-12.6
		c-0.7,0-2.1,0-2.7,0C322.8,542.2,322.8,541.3,322.8,540.8z"/>
	<path class="st1" d="M332.7,540.8c0.5,0,1.4,0,1.9,0c0,2.1,0,4.1,0,6.2c0.9,0,2.6,0,3.5,0c0-2.1,0-4.2,0-6.2c0.5,0,1.4,0,1.9,0
		c-0.9,4.8,1.8,11.6-1.6,15c-0.3-2.2-0.3-4.5-0.3-6.8c-1.2,0-2.3,0-3.5,0c0,2.3,0,4.5-0.2,6.8C330.8,552.4,333.5,545.6,332.7,540.8z
		"/>
	<path class="st1" d="M342.8,540.8c2.5,0,5,0,7.5,0c0,0.5,0,1.4,0,1.9c-1.8,0-3.6,0-5.5,0c0,1.5,0,2.9,0,4.4c1.5,0,3,0,4.5,0v2
		c-1.5,0-3,0-4.5,0c0,1.5,0,2.9,0,4.4c1.8,0,3.7,0,5.5,0v1.9c-2.5,0-4.9,0-7.3,0C342.7,550.5,343.1,545.6,342.8,540.8z"/>
	<path class="st1" d="M242.5,556.8c-0.9-16.6,25.1-20.9,29.7-5c-2.2,1.2-4.6,1.9-7,2.7c-3.5-9.8-19.4-3.5-14.1,6
		c7.3,7.1,18.9,7.9,27,14c6.3,6,6.1,17.4-0.9,22.8c-7.6,7-21.4,3.1-24.2-6.8c2.3-0.9,4.7-1.7,7.1-2.4c3.6,9.9,19.3,2.9,13.9-6.3
		C264.4,572.8,243.2,573.8,242.5,556.8z"/>
	<path class="st1" d="M296.5,548.9c4.9-0.6,9.9-0.8,14.8-1.2c0,0.5,0,1.5,0,2c-3.6,0.2-7.2,0.5-10.8,0.8c1,0.5,2.1,1.1,3.1,1.6
		c-0.7,0.5-2.1,1.4-2.8,1.9c3.6-0.2,7.3-0.5,11-0.8c0,0.5,0,1.5,0,1.9c-4.8,0.3-9.6,0.8-14.4,1.1c-0.1-0.5-0.1-1.5-0.2-2
		c0.8-0.6,1.6-1.2,2.4-1.8C298,551.7,296.8,550.7,296.5,548.9z"/>
	<path class="st1" d="M368.1,557.7c-7.8,0.3-4.9-11,1.9-7.3c6.4-2.1,11.2,7.6,3.1,8.2c0.5-1.9,2.4-2.9,2.8-4.8
		c-3.1-0.8-12.6-4.3-10.2,1.9c0.7-0.5,2.2-1.5,2.9-2C368.5,555,368.3,556.3,368.1,557.7z"/>
	<path class="st1" d="M213.2,555.9c2.3-0.9,4.7-1.7,7.1-2.5c5.3,15.4,10.8,30.8,15.4,46.4c2.4,15.2-20.1,23.3-28,10.2
		c-6-15.3-10.7-31.2-16.1-46.8c2.4-0.9,4.7-1.8,7.2-2.3c5.3,14.8,10,29.8,15.3,44.6c3.7,6.8,15.5,2.7,13.8-5.1
		C223.3,585.5,217.9,570.8,213.2,555.9z"/>
	<path class="st1" d="M319.5,560.3c2.2,2.2,4.3,4.6,6.4,7c-0.5,0.4-1.4,1.2-1.9,1.6c-0.8-0.8-1.6-1.7-2.3-2.5
		c-4,3.6-7.9,7.3-12,10.9c-0.4-0.5-1.2-1.4-1.6-1.9c3.9-3.7,7.9-7.2,11.9-10.8c-0.7-0.9-1.5-1.7-2.2-2.6
		C318.2,561.5,319.1,560.7,319.5,560.3z"/>
	<path class="st1" d="M306.2,562.1"/>
	<path class="st1" d="M352.8,563.3c0.5-0.5,1.5-1.4,2-1.8c4.2,4.5,8.5,8.9,12.8,13.4c-0.4,0.4-1.3,1.3-1.8,1.7
		c-3.3-3.2-6.4-6.8-9.7-10c0.2,1,0.7,3.1,1,4.1c-1.4-0.4-2.8-0.8-4.2-1.2c3.2,3.4,6.5,6.8,9.7,10.2c-0.6,0.6-1.2,1.1-1.8,1.7
		c-4.3-4.4-8.6-8.9-12.8-13.3c0.4-0.5,1.4-1.4,1.8-1.9c1.3,0.3,2.6,0.7,3.9,1.1C353.4,565.9,353.1,564.6,352.8,563.3z"/>
	<path class="st1" d="M366.6,566c-5.8-2.7,2.8-7.7,2.2-1.4C368.2,564.9,367.1,565.6,366.6,566z"/>
	<path class="st1" d="M145.6,578.6c9.5-3.3,18.9-6.5,28.4-9.6c1.2,2.3,1.9,4.7,2.5,7.2c-3.5,1.2-7.1,2.4-10.6,3.6
		c5.6,16.8,11.6,33.4,16.8,50.3c-2.3,0.8-4.6,1.6-7,2.3c-6.2-16.6-11.4-33.5-17.2-50.2c-3.5,1.2-7,2.6-10.7,3.5
		C146.9,583.4,146,581.1,145.6,578.6z"/>
	<path class="st1" d="M327.2,568.2c3,0.9,6,1.8,9,2.8c-0.2,0.6-0.5,1.7-0.6,2.3c-2.2-0.7-4.5-1.3-6.7-2c-0.6,1.8-1.1,3.5-1.7,5.3
		c1.8,0.6,3.7,1.2,5.5,1.8c-0.2,0.6-0.6,1.7-0.8,2.3c-1.8-0.5-3.7-1.1-5.5-1.7c-0.5,1.8-1.1,3.6-1.6,5.3c2.2,0.7,4.4,1.4,6.6,2.1
		c-0.2,0.6-0.5,1.7-0.7,2.3c-3-0.9-6-1.8-9-2.8C323.5,579.9,325.3,574,327.2,568.2z"/>
	<g>
		<path class="st1" d="M341,569.9c0.6,0,1.7-0.1,2.2-0.2c2.5,5.7,5.2,11.4,7.6,17.2c-1.8,0.7-3,0.1-3.6-1.6c-1,0.2-2.1,0.4-3.1,0.6
			c0.4,1.9-0.6,2.9-2.4,3.1C341.4,582.7,341.1,576.3,341,569.9z M343.7,577c0,2.2,0.1,4.3,0.1,6.5c0.6-0.1,1.9-0.4,2.6-0.6
			C345.5,581,344.7,579,343.7,577z"/>
	</g>
	<g>
		<path class="st1" d="M117.5,588.6c2.2-1.1,4.4-1.8,6.8-2.3c10.1,17.7,20.3,35.5,30.3,53.2c-2.4,1-4.9,1.9-7.4,2.5
			c-1.2-2.2-2.4-4.3-3.7-6.5c-3.9,1-7.7,2.4-11.5,3.8c0.3,2.5,0.7,5,0.9,7.5c-2.3,0.9-4.7,1.7-7.1,2.4
			C122.5,629.2,120.2,608.9,117.5,588.6z M128.5,609.9c-0.1,7.2,1.5,14.3,2.4,21.5c2.8-0.8,5.6-1.7,8.2-2.8
			C136,622.2,132.5,615.9,128.5,609.9z"/>
	</g>
	<path class="st1" d="M81.2,600.3c2.3-0.8,4.6-1.6,6.9-2.4c6.8,19,13.1,38.3,19.5,57.5c-2.3,0.9-4.6,1.7-7,2.3
		c-9.1-10.4-17.8-21.1-26.8-31.6c4,12.2,8.4,24.4,12.2,36.7c-2.3,0.8-4.6,1.6-7,2.4c-6.9-19-13.1-38.2-19.5-57.3
		c2.2-1.1,4.6-1.8,7-2.4c9.1,10.5,17.8,21.2,26.8,31.7C89.4,624.8,84.9,612.7,81.2,600.3z"/>
	<g>
		<g>
			<path d="M703.1,53.1c26.7-4,43,23.8,42.2,47.3c0.2,104.8-1.2,209.6-1.4,314.4c-0.1,17.8-1.5,36.5-11.1,52
				c-8.1,13-21.9,21.3-36.1,26c-207.1,70.5-414.2,141-621.3,211.5c-16.2,5.4-36.4,3.5-47.8-10.3c-11.4-13.5-13.1-32.1-13-49.1
				c-1.4-92.7-2.7-185.4-4.1-278.1c0.3-18.6-2.5-37.6,2.6-55.7c6.5-26.1,29.2-45.5,54.6-52.3c199-65.1,398-130,597-195
				C677.4,60,689.8,54.2,703.1,53.1z M586.9,129.1c0.5,91,1.8,182,2.5,273.1c33.9-10.4,67.3-22.5,101-33.8
				c0.1-91.5,1.1-183.1,0.8-274.6C656.4,105.4,621.7,117.3,586.9,129.1z M472.1,167.2c0,30.5,0.1,60.9,0.3,91.4
				c34.2,43.8,67.9,88.1,102.5,131.5c0.4-85.5-0.7-171.4-1.8-257.1C539.5,144.4,505.8,155.8,472.1,167.2z M357.5,206.7
				c0.5,29,0.4,57.9,1.1,86.9c16.1,22.5,33.3,44.4,49.9,66.6c-16.4,5.8-32.8,11.3-49.1,17.1c0.2,18,0.4,35.9,0.6,53.8
				c27.3-8.5,54.2-18.2,81.3-27.3c9.9,12.9,19.6,26,29.5,38.9c33.7-11.5,67.6-22.7,101.2-34.6c-55.9-72.4-112-144.6-168.3-216.6
				C388.2,195.9,372.9,201.6,357.5,206.7z M245.2,245.1c0.7,32.8,1.4,65.7,2.5,98.5c32.4,42.3,65.7,84.1,98.5,126.1
				c1.7-1.2,1-3.4,1.1-5c-1.1-84.4-1.6-168.7-2.9-253.1C311.3,222.4,278.3,233.9,245.2,245.1z M58.4,308.9
				c0.6,91.2,1,182.4,2.1,273.6c33.8-11.3,67.6-22.8,101.4-34.3c0.3-91.5,1-183,0.9-274.6C127.9,285.2,93.2,297.2,58.4,308.9z
				 M176.1,275.4c-0.3,53-0.6,106.1-0.6,159.1c21.7,28.8,43.8,57.4,65.9,86c33.6-11.5,67.2-22.6,100.8-34.2
				C288.6,416.8,234,348,180,278.7C178.9,277.3,177.9,275.8,176.1,275.4z M667.4,402.9c6.1,19.1,12.7,38.1,19.2,57.2
				c9.6-2.9,19.1-6.3,28.6-9.6c-0.4-2.5-1.3-4.9-2.2-7.2c-7.2,2.2-14.3,4.8-21.5,7.2c-2-5.9-4-11.8-6-17.7c5.8-2,11.7-3.9,17.5-6
				c-0.1-2.6-1.1-5-2.3-7.3c-5.9,1.9-11.7,4-17.6,5.9c-2.1-5.9-4-11.8-6-17.8c7.2-2.4,14.3-4.8,21.5-7.2c-0.6-2.4-1.3-4.8-2.3-7
				C686.5,396.3,677,399.9,667.4,402.9z M619.8,418.7c6.5,19.2,12.6,38.5,19.6,57.5c2.3-0.8,4.6-1.6,6.9-2.4
				c-2.5-8.5-5.6-16.7-8.3-25.1c1.4-0.5,2.8-1,4.2-1.4c8.4,6.5,13,26.8,25.8,19.1c-5.9-7.9-12.2-15.4-18.2-23.1
				c8.3-7.8,6.2-23.4-4.2-28.2C637.1,409.7,628.1,416.8,619.8,418.7z M572.9,434.8c6.5,19.1,12.6,38.3,19.4,57.2
				c9.5-3.2,19.1-6.2,28.6-9.7c-0.6-2.4-1.3-4.8-2.4-7.1c-7.2,2.2-14.3,4.8-21.5,7.1c-2-5.9-4.1-11.8-6-17.7c5.9-2,11.8-3.8,17.6-6
				c-0.5-2.4-1.3-4.8-2.3-7.1c-6.1,1.6-11.9,3.9-17.8,5.8c-1.9-5.9-4-11.8-6-17.8c7.1-2.4,14.3-4.7,21.4-7.3c-0.5-2.4-1.3-4.7-2.2-7
				C592,428.1,582.5,431.7,572.9,434.8z M534.3,449.3c-10.9,14,3.9,30.7,6.5,45.4c6.3,17.6,35.5,6.9,28.3-10.8
				c-2.3,0.6-4.6,1.4-6.9,2.2c2.3,8.1-9.1,14.1-13.8,6.9c-3.8-10.7-7.6-21.4-10.8-32.2c-1.1-8.8,11.8-10.9,14.9-3.1
				c2.3-0.7,4.7-1.4,6.9-2.4C556.6,444.7,541.6,441.3,534.3,449.3z M499.8,459.2c3.8,12.3,8.3,24.4,12.1,36.7
				c-9-10.5-17.7-21.3-26.8-31.7c-2.4,0.7-4.7,1.4-6.9,2.6c6.4,19.1,12.6,38.3,19.5,57.3c2.3-0.8,4.7-1.5,7-2.4
				c-3.7-12.3-8.2-24.4-12.1-36.6c9,10.4,17.6,21.1,26.7,31.5c2.4-0.5,4.8-1.2,7-2.4c-6.5-19.1-12.6-38.4-19.5-57.3
				C504.5,457.6,502.2,458.4,499.8,459.2z M431,482.5c0.6,2.4,1.4,4.8,2.4,7.1c3.6-0.9,7.1-2.2,10.6-3.5
				c4.9,14.3,9.6,28.6,14.5,42.9c-3.5,1.2-7.1,2.3-10.6,3.6c0.7,2.4,1.4,4.8,2.4,7.1c9.6-2.9,19.1-6.2,28.6-9.6
				c-0.6-2.4-1.4-4.8-2.5-7.1c-3.6,1-7.1,2.3-10.6,3.5c-4.8-14.3-9.6-28.6-14.4-42.8c3.5-1.2,7.1-2.3,10.6-3.7
				c-0.6-2.4-1.4-4.8-2.4-7C450,475.9,440.5,479.3,431,482.5z M406.3,490.8c1.4,12.4,3.6,24.7,4.6,37.1c-7.1-10-12.2-21.2-18.6-31.6
				c-2.7-1-5.2,1.3-7.7,1.9c10.2,17.8,20.1,35.8,30.5,53.5c2.3-0.5,4.5-1.2,6.7-2.2c-2.5-20.4-5.3-40.7-8.2-61.1
				C411.1,489,408.7,489.7,406.3,490.8z M333.2,503.2c-34.3,1.5-54.8,45.7-33.6,72.8c18.4,28.5,66.2,24.3,79.4-7
				C395.1,538.6,367.2,498.6,333.2,503.2z M242.5,556.8c0.7,17,21.8,16,31.4,24.9c5.4,9.2-10.3,16.2-13.9,6.3
				c-2.4,0.7-4.8,1.5-7.1,2.4c2.8,9.9,16.6,13.8,24.2,6.8c7-5.4,7.2-16.8,0.9-22.8c-8.1-6.2-19.7-7-27-14c-5.3-9.5,10.6-15.7,14.1-6
				c2.4-0.8,4.8-1.5,7-2.7C267.6,535.9,241.6,540.2,242.5,556.8z M213.2,555.9c4.7,14.9,10,29.6,14.8,44.5
				c1.6,7.7-10.1,11.8-13.8,5.1c-5.4-14.8-10.1-29.8-15.3-44.6c-2.5,0.5-4.9,1.4-7.2,2.3c5.3,15.6,10.1,31.5,16.1,46.8
				c7.9,13.1,30.4,5,28-10.2c-4.6-15.6-10.1-31-15.4-46.4C217.9,554.1,215.5,555,213.2,555.9z M145.6,578.6c0.4,2.5,1.3,4.8,2.2,7.1
				c3.6-0.9,7.1-2.2,10.7-3.5c5.8,16.7,11,33.7,17.2,50.2c2.3-0.8,4.7-1.5,7-2.3c-5.2-16.9-11.2-33.5-16.8-50.3
				c3.5-1.2,7.1-2.3,10.6-3.6c-0.6-2.5-1.3-4.9-2.5-7.2C164.5,572.1,155,575.3,145.6,578.6z M117.5,588.6
				c2.7,20.3,5.1,40.6,8.3,60.8c2.4-0.7,4.7-1.5,7.1-2.4c-0.2-2.5-0.5-5-0.9-7.5c3.8-1.5,7.6-2.8,11.5-3.8c1.2,2.1,2.5,4.3,3.7,6.5
				c2.5-0.7,5-1.5,7.4-2.5c-10-17.8-20.1-35.5-30.3-53.2C121.9,586.8,119.6,587.5,117.5,588.6z M81.2,600.3
				c3.7,12.4,8.2,24.5,12.2,36.8c-9-10.5-17.7-21.3-26.8-31.7c-2.4,0.6-4.8,1.2-7,2.4c6.4,19.1,12.6,38.4,19.5,57.3
				c2.3-0.8,4.7-1.6,7-2.4c-3.8-12.3-8.2-24.4-12.2-36.7c9,10.5,17.7,21.2,26.8,31.6c2.4-0.6,4.7-1.4,7-2.3
				c-6.4-19.2-12.7-38.4-19.5-57.5C85.9,598.7,83.5,599.5,81.2,600.3z"/>
		</g>
		<path d="M629.5,423.6c5.6-3.2,14.3-3.4,16.8,3.8c3.1,7.4-4.2,13.1-10.9,14C633.5,435.4,631.5,429.5,629.5,423.6z"/>
		<g>
			<path d="M330.1,506.1c20.4-3.8,42.1,9.3,48.4,29c10.6,27.4-13.6,59.8-42.9,57.6c-21.1-0.3-40-18.1-41.8-39.1
				C291,531.5,308,509.4,330.1,506.1z M337,523.4c3.2,0.5,4.5-2.9,4.3-5.5c-1,0-2.9,0-3.9,0c0,0.5-0.1,1.4-0.1,1.9l2.1,0.3
				c-0.4,0.4-1.2,1.2-1.7,1.6c-0.5-0.2-1.5-0.6-1.9-0.8c-0.9-5.6-0.6-12.2,5.6-8.5C335.4,501,329,521.2,337,523.4z M320.4,512.4
				l0.5,1.8c0.7-0.2,2-0.6,2.6-0.8c1.2,3.3,2.4,6.6,3.5,9.9c-1.8,0.3-2.5,1.2-2.1,2.9c2.5-0.8,4.9-1.6,7.3-2.5
				c-0.2-0.4-0.5-1.4-0.7-1.8c-0.8,0.3-1.7,0.6-2.5,0.9c-1.2-3.3-2.4-6.6-3.6-10c0.6-0.2,1.9-0.7,2.5-1c-0.1-0.4-0.4-1.4-0.6-1.8
				C325,510.7,322.7,511.5,320.4,512.4z M342.4,524c1.8-0.2,3.3-1.4,5.2-0.9c0.2,0.7,0.5,2.2,0.7,2.9c3.4-3.4,2-10.2,3.4-15
				C346.7,512.3,345.4,520,342.4,524z M309.1,520.1c0.3,0.4,1,1.1,1.3,1.5c0.7-0.6,1.4-1.1,2.1-1.7c2.7,3.3,5.3,6.8,8.2,10
				c2-4-4.9-7.4-6.6-11.1c1.3-1,2.1-2.1,1-3.5C313.1,516.8,311.1,518.5,309.1,520.1z M350.7,526.9c3.9,1.7,5.5-5.5,8.5-7.5
				c-0.1,0.8-0.3,2.4-0.4,3.2c1-0.4,2-0.7,3-1.1c-1.3,3.2-8.1,6.5-5.4,9.8c3.3-3.8,6.3-7.7,9.4-11.7c-1.4-1.2-3-0.9-4.5-0.2
				c0.3-1.7,0.4-3.3-1.1-4.4C356.8,519,353.8,523,350.7,526.9z M368.4,526c0.5,0.8,0.9,1.6,1.4,2.4c-3,1.8-6,3.7-9,5.5
				c-0.4-0.6-1.1-1.8-1.5-2.4c-3.2,1.9,1.7,5.1,2.3,7.4c0.4-0.2,1.3-0.7,1.7-0.9c-0.4-0.6-1-1.8-1.4-2.4c3-1.8,6-3.7,9-5.5
				c0.4,0.6,1.1,1.8,1.5,2.4c3.2-1.9-1.6-5.1-2.3-7.4L368.4,526z M302.4,528.8c4,2.8,8,5.6,11.9,8.4c1.4-2,2.8-4.1,4.2-6.1
				c-0.4-0.3-1.2-0.8-1.6-1c-1,1.5-2.1,2.9-3.1,4.4c-3.4-2.5-6.9-4.8-10.3-7.3C303.2,527.6,302.7,528.4,302.4,528.8z M298.5,536.4
				c3.7,2.3,10.5,1.1,12.2,5.3c-3.4,3-8.8-1.6-13.1-1.7c1,4,9.1,4.5,13.1,4.6C317.6,538.2,302,533.6,298.5,536.4z M362.2,540.5
				c0.1,0.5,0.3,1.4,0.4,1.9c2.9-0.6,5.7-1.2,8.6-1.7c-2.8,2.1-6.1,3.5-8.4,6.1c4.9,1.4,10.2-1.6,15.2-2.1c-0.1-0.5-0.4-1.4-0.5-1.9
				c-2.9,0.6-5.8,1.2-8.7,1.8c2.3-2.5,7.9-3.1,7.9-7C371.9,538.4,367,539.5,362.2,540.5z M322.8,540.8c0,0.5,0,1.4,0,1.9
				c0.7,0,2,0,2.7,0c0,4.2,0,8.4,0,12.6c0.5,0,1.4,0,1.9,0c0-4.2,0-8.3,0-12.5C334.5,541.6,325.6,540,322.8,540.8z M332.7,540.8
				c0.9,4.8-1.9,11.6,1.6,15c0.3-2.2,0.3-4.5,0.2-6.8c1.2,0,2.3,0,3.5,0c0,2.2,0,4.5,0.3,6.8c3.5-3.5,0.8-10.2,1.6-15
				c-0.5,0-1.4,0-1.9,0c0,2.1,0,4.1,0,6.2c-0.9,0-2.6,0-3.5,0c0-2.1,0-4.2,0-6.2C334.1,540.8,333.1,540.8,332.7,540.8z M342.8,540.8
				c0.3,4.8-0.1,9.7,0.2,14.5c2.4,0,4.9,0,7.3,0v-1.9c-1.8,0-3.7,0-5.5,0c0-1.5,0-2.9,0-4.4c1.5,0,3,0,4.5,0v-2c-1.5,0-3,0-4.5,0
				c0-1.5,0-2.9,0-4.4c1.8,0,3.6,0,5.5,0c0-0.5,0-1.4,0-1.9C347.8,540.8,345.3,540.8,342.8,540.8z M296.5,548.9
				c0.2,1.8,1.5,2.8,3.1,3.4c-0.8,0.6-1.6,1.2-2.4,1.8c0.1,0.5,0.1,1.5,0.2,2c4.8-0.3,9.6-0.7,14.4-1.1c0-0.5,0-1.5,0-1.9
				c-3.7,0.2-7.3,0.5-11,0.8c0.7-0.5,2.1-1.4,2.8-1.9c-1-0.5-2.1-1.1-3.1-1.6c3.6-0.2,7.2-0.5,10.8-0.8c0-0.5,0-1.5,0-2
				C306.4,548.1,301.5,548.4,296.5,548.9z M368.1,557.7c0.2-1.4,0.4-2.7,0.6-4.1c-0.7,0.5-2.2,1.5-2.9,2c-2.4-6.2,7-2.7,10.2-1.9
				c-0.4,2-2.4,2.9-2.8,4.8c8.2-0.5,3.3-10.2-3.1-8.2C363.2,546.7,360.3,558,368.1,557.7z M319.5,560.3c-0.4,0.4-1.3,1.2-1.7,1.7
				c0.7,0.8,1.5,1.7,2.2,2.6c-3.9,3.6-7.9,7.2-11.9,10.8c0.4,0.5,1.2,1.4,1.6,1.9c4-3.6,8-7.3,12-10.9c0.8,0.8,1.6,1.7,2.3,2.5
				c0.5-0.4,1.4-1.2,1.9-1.6C323.8,564.9,321.7,562.5,319.5,560.3z M352.8,563.3c0.3,1.3,0.6,2.5,0.9,3.8c-1.3-0.4-2.6-0.7-3.9-1.1
				c-0.5,0.5-1.4,1.4-1.8,1.9c4.2,4.5,8.5,9,12.8,13.3c0.6-0.6,1.2-1.1,1.8-1.7c-3.3-3.4-6.5-6.7-9.7-10.2c1.4,0.4,2.8,0.8,4.2,1.2
				c-0.2-1-0.7-3.1-1-4.1c3.3,3.2,6.4,6.7,9.7,10c0.4-0.4,1.3-1.3,1.8-1.7c-4.3-4.5-8.6-8.9-12.8-13.4
				C354.3,561.9,353.3,562.9,352.8,563.3z M366.6,566c0.5-0.3,1.7-1,2.2-1.4C369.3,558.3,360.8,563.2,366.6,566z M327.2,568.2
				c-1.9,5.9-3.7,11.7-5.5,17.6c3,1,6,1.9,9,2.8c0.2-0.6,0.5-1.7,0.7-2.3c-2.2-0.7-4.4-1.4-6.6-2.1c0.5-1.8,1.1-3.6,1.6-5.3
				c1.8,0.6,3.7,1.1,5.5,1.7c0.2-0.6,0.6-1.7,0.8-2.3c-1.8-0.6-3.7-1.2-5.5-1.8c0.6-1.8,1.1-3.5,1.7-5.3c2.2,0.7,4.4,1.4,6.7,2
				c0.2-0.6,0.5-1.7,0.6-2.3C333.1,570,330.2,569,327.2,568.2z M341,569.9c0.1,6.4,0.3,12.8,0.7,19.2c1.9-0.2,2.8-1.2,2.4-3.1
				c1-0.2,2.1-0.4,3.1-0.6c0.6,1.8,1.9,2.3,3.6,1.6c-2.4-5.8-5.1-11.5-7.6-17.2C342.7,569.8,341.6,569.9,341,569.9z"/>
		</g>
		<path d="M348.6,517.4"/>
		<path d="M343.7,577c0.9,2,1.8,3.9,2.7,5.9c-0.7,0.1-2,0.4-2.6,0.6C343.8,581.4,343.7,579.2,343.7,577z"/>
		<path d="M128.5,609.9c4,6,7.5,12.2,10.7,18.7c-2.7,1.1-5.4,2-8.2,2.8C130.1,624.3,128.4,617.1,128.5,609.9z"/>
	</g>
	<g>
		<path class="st2" d="M586.9,129.1c34.7-11.8,69.4-23.7,104.2-35.4c0.4,91.5-0.7,183.1-0.8,274.6c-33.6,11.2-67.1,23.3-101,33.8
			C588.7,311.1,587.5,220.1,586.9,129.1z"/>
		<path class="st2" d="M472.1,167.2c33.7-11.5,67.4-22.9,101.1-34.2c1.1,85.6,2.2,171.5,1.8,257.1c-34.7-43.4-68.3-87.7-102.5-131.5
			C472.2,228.1,472.1,197.7,472.1,167.2z"/>
		<path class="st2" d="M357.5,206.7c15.4-5,30.7-10.8,46.1-15.2c56.2,72.1,112.4,144.3,168.3,216.6c-33.6,11.9-67.4,23.1-101.2,34.6
			c-9.9-13-19.5-26-29.5-38.9c-27.1,9.1-54.1,18.8-81.3,27.3c-0.2-17.9-0.4-35.9-0.6-53.8c16.3-5.8,32.8-11.4,49.1-17.1
			c-16.6-22.2-33.7-44.1-49.9-66.6C358,264.6,358.1,235.6,357.5,206.7z"/>
		<path class="st2" d="M245.2,245.1c33.1-11.2,66.1-22.6,99.2-33.5c1.2,84.3,1.8,168.7,2.9,253.1c-0.1,1.7,0.6,3.9-1.1,5
			c-32.9-42-66.1-83.8-98.5-126.1C246.6,310.8,245.9,277.9,245.2,245.1z"/>
		<path class="st2" d="M58.4,308.9c34.8-11.7,69.5-23.7,104.4-35.2c0.1,91.5-0.6,183-0.9,274.6c-33.8,11.5-67.5,23-101.4,34.3
			C59.4,491.4,59,400.1,58.4,308.9z"/>
		<path class="st2" d="M176.1,275.4c1.8,0.4,2.8,1.9,3.8,3.2c53.9,69.3,108.6,138,162.2,207.6c-33.5,11.6-67.2,22.8-100.8,34.2
			c-22.1-28.6-44.2-57.1-65.9-86C175.6,381.5,175.8,328.5,176.1,275.4z"/>
	</g>
</g>
</svg>
