<?xml version="1.0" encoding="utf-8"?>
<!-- Generator: Adobe Illustrator 21.0.0, SVG Export Plug-In . SVG Version: 6.00 Build 0)  -->
<svg version="1.1" id="Layer_2" xmlns="http://www.w3.org/2000/svg" xmlns:xlink="http://www.w3.org/1999/xlink" x="0px" y="0px" height="800px" width="800px"
	 viewBox="0 0 533.4 533.4" style="enable-background:new 0 0 533.4 533.4;" xml:space="preserve">
<style type="text/css">
	.st0{fill:#A88B65;}
</style>
<path class="st0" d="M532.2,126.4c-0.1,1.2-0.2,2.4-0.4,3.5c-2.7,57.6-23.5,110.5-56.9,153.1c0.4-5.4,0.6-10.9,0.6-16.4
	c0-17.9-2.2-35.2-6.5-51.8c14.8-4.8,29-10.7,42.6-17.9c-14.4,4.6-29.4,8-44.7,10.2C447.2,140.7,395.4,88,329.4,67.3
	C282,25.5,219.7,0.1,151.4,0.1c-8.4,0-16.8,0.4-25,1.2c1.2,0.1,2.4,0.2,3.5,0.4c57.6,2.6,110.3,23.4,152.9,56.6
	c-5.3-0.4-10.7-0.6-16.1-0.6c-18,0-35.4,2.3-52.1,6.5c-4.7-14.6-10.7-28.7-17.7-42.2c4.6,14.3,8,29.1,10.1,44.3
	C140.5,86.1,87.9,138.1,67.2,204.2C25.4,251.7,0,314,0,382.3c0,8.4,0.4,16.8,1.2,25c0.1-1.2,0.2-2.4,0.4-3.5
	c2.7-57.6,23.5-110.5,56.8-153c-0.4,5.2-0.6,10.5-0.6,15.8c0,18,2.3,35.4,6.5,52c-14.8,4.8-29.1,10.8-42.7,17.9
	c14.5-4.6,29.5-8.1,44.9-10.2c19.7,66.1,71.2,118.5,136.9,139.4c47.5,42.1,110.1,67.6,178.6,67.6c8.4,0,16.8-0.4,25-1.2
	c-1.2-0.1-2.4-0.2-3.5-0.4c-57.7-2.7-110.6-23.6-153.2-56.9c5.5,0.4,11,0.7,16.6,0.7c17.9,0,35.3-2.3,52-6.5
	c4.8,14.8,10.7,29.1,17.9,42.7c-4.6-14.4-8-29.4-10.2-44.8c65.9-19.8,118.4-71.4,139.3-137.2c42-47.5,67.5-110,67.5-178.4
	C533.3,142.9,532.9,134.6,532.2,126.4z M462.2,207.7c-10.7,1.3-21.6,2-32.6,2c-5.2,0-10.3-0.2-15.4-0.4c-0.4-1.8-0.9-3.6-1.3-5.5
	c0-0.1-0.1-0.2-0.1-0.4c-0.5-2-1.1-4.1-1.6-6.1c0-0.1,0-0.1,0-0.2c-0.6-2.1-1.2-4.1-1.8-6.2l0,0c-13.6-44.5-38.4-84.1-71.1-115.6
	C397.6,97.5,443.8,146.6,462.2,207.7z M220,152.6c0.4-0.3,0.8-0.6,1.1-1c1.1-0.9,2.3-1.9,3.4-2.8c0.1-0.1,0.2-0.1,0.2-0.2
	c3.3-2.7,6.7-5.3,10.1-7.8c0.3-0.2,0.6-0.5,0.9-0.7c3.1-2.3,6.3-4.5,9.5-6.6c0.6-0.4,1.2-0.8,1.8-1.2c0.9-0.6,1.8-1.1,2.6-1.7
	c0.8-0.5,1.6-1,2.4-1.5c1.1-0.7,2.1-1.3,3.2-1.9c1.1-0.7,2.2-1.3,3.4-2c0.7-0.4,1.4-0.8,2-1.2c1.1-0.6,2.1-1.2,3.2-1.8
	c0.6-0.3,1.1-0.6,1.7-0.9c1.6-0.9,3.2-1.7,4.8-2.6c0.4-0.2,0.9-0.4,1.3-0.7c1.3-0.7,2.7-1.3,4-2c0.5-0.2,1-0.5,1.5-0.7
	c1.7-0.8,3.4-1.6,5.2-2.4c-4.3-0.2-8.5-0.3-12.8-0.3c-2.3,0-4.6,0-6.9,0.1c-0.9,0-1.9,0.1-2.8,0.1c-1.4,0-2.7,0.1-4,0.2
	c-1.2,0.1-2.4,0.2-3.7,0.2c-1,0.1-2.1,0.1-3.1,0.2c-1.4,0.1-2.8,0.2-4.2,0.4c-0.8,0.1-1.6,0.1-2.5,0.2c-1.6,0.2-3.1,0.3-4.7,0.5
	c-0.7,0.1-1.3,0.1-2,0.2c-1.7,0.2-3.4,0.5-5,0.7c-0.5,0.1-1,0.1-1.6,0.2c-1.1,0.2-2.2,0.3-3.3,0.5c-1.7-16.2-5.1-32-9.7-47.3
	c16.2-4.1,33.2-6.3,50.7-6.3c7.7,0,15.3,0.4,22.8,1.3c33.3,27.8,59.8,63.4,76.7,104c-1.8,0-3.5-0.1-5.3-0.1c-23.6,0-46.4,3-68.2,8.7
	c-6.8-7.2-14-14.1-21.5-20.5c6,7,11.6,14.3,16.8,21.8c-32.9,9.2-63.2,24.5-89.8,44.6c-0.5-6.4-0.7-12.9-0.7-19.5
	c0-10.4,0.6-20.7,1.8-30.8l0,0c8.5,8.6,16.3,17.8,23.6,27.5c8.1-4.7,16.5-9,25.2-12.8C239.7,174.6,230.2,163.2,220,152.6z
	 M301.5,199.2c17.3,30.8,28.7,65.4,32.7,102.1c-30.9,17.4-65.6,28.8-102.5,32.8c-17.2-30.8-28.6-65.4-32.6-102.1
	C230,214.7,264.6,203.2,301.5,199.2z M207.6,71.1c1.3,10.8,2,21.9,2,33c0,5.2-0.2,10.3-0.4,15.4c-1.8,0.4-3.6,0.9-5.5,1.3
	c-0.1,0-0.2,0.1-0.4,0.1c-2,0.5-4.1,1.1-6.1,1.6c-0.1,0-0.1,0-0.2,0c-2.1,0.6-4.1,1.2-6.2,1.8l0,0c-44.5,13.6-84.1,38.4-115.6,71.1
	C97.3,136,146.4,89.6,207.6,71.1z M62.5,266.6c0-7.6,0.4-15.1,1.2-22.5c27.7-33.2,63.3-59.7,103.9-76.5c0,1.8-0.1,3.5-0.1,5.3
	c0,23.5,3,46.3,8.7,68.1c-7.2,6.7-13.9,13.8-20.3,21.3c6.9-5.9,14.1-11.4,21.6-16.6c9.2,32.8,24.4,63,44.4,89.5
	c-6.4,0.5-13,0.7-19.5,0.7c-10.4,0-20.7-0.6-30.8-1.8l0,0c8.6-8.5,17.8-16.3,27.5-23.6c-4.7-8.1-9-16.5-12.8-25.2
	c-12.1,8.4-23.5,17.8-34.1,28.1c-0.3-0.4-0.7-0.7-1-1.1c-0.9-1.1-1.9-2.3-2.8-3.4c-0.1-0.1-0.1-0.2-0.2-0.2
	c-2.7-3.3-5.3-6.7-7.8-10.1c-0.2-0.3-0.5-0.6-0.7-0.9c-2.3-3.1-4.5-6.3-6.6-9.5c-0.4-0.6-0.8-1.2-1.2-1.8c-0.6-0.9-1.1-1.8-1.7-2.6
	c-0.5-0.8-1-1.6-1.5-2.4c-0.7-1.1-1.3-2.1-1.9-3.2c-0.7-1.1-1.3-2.2-2-3.4c-0.4-0.7-0.8-1.4-1.2-2c-0.6-1.1-1.2-2.1-1.8-3.2
	c-0.3-0.6-0.6-1.1-0.9-1.7c-0.9-1.6-1.7-3.2-2.6-4.8c-0.2-0.4-0.4-0.9-0.7-1.3c-0.7-1.3-1.3-2.7-2-4c-0.2-0.5-0.5-1-0.7-1.5
	c-0.8-1.7-1.6-3.4-2.4-5.2c-0.2,4.3-0.3,8.5-0.3,12.8c0,2.3,0,4.6,0.1,6.9c0,0.9,0.1,1.9,0.1,2.8c0,1.4,0.1,2.7,0.2,4
	c0.1,1.2,0.2,2.4,0.2,3.7c0.1,1,0.1,2.1,0.2,3.1c0.1,1.4,0.2,2.8,0.4,4.2c0.1,0.8,0.1,1.6,0.2,2.5c0.2,1.6,0.3,3.1,0.5,4.7
	c0.1,0.7,0.1,1.3,0.2,2c0.2,1.7,0.5,3.4,0.7,5c0.1,0.5,0.1,1,0.2,1.6c0.2,1.1,0.3,2.2,0.5,3.3c-16.1,1.8-31.8,5.1-47,9.7
	C64.7,301,62.5,284,62.5,266.6z M171.5,333.9C171.5,333.9,171.5,334,171.5,333.9C171.5,334,171.5,333.9,171.5,333.9L171.5,333.9
	L171.5,333.9L171.5,333.9z M71.2,325.7c10.6-1.3,21.5-1.9,32.5-1.9c5.2,0,10.3,0.2,15.4,0.4c0.4,1.8,0.9,3.6,1.3,5.5
	c0,0.1,0.1,0.2,0.1,0.4c0.5,2,1.1,4.1,1.6,6.1c0,0.1,0,0.1,0,0.2c0.6,2.1,1.2,4.1,1.8,6.2l0,0c13.5,44.3,38.1,83.7,70.6,115.1
	C135.5,435.3,89.6,386.5,71.2,325.7z M313.3,381c-0.4,0.3-0.7,0.7-1.1,1c-1.1,0.9-2.3,1.9-3.4,2.8c-0.1,0.1-0.2,0.1-0.2,0.2
	c-3.3,2.7-6.7,5.3-10.1,7.8c-0.3,0.2-0.6,0.5-0.9,0.7c-3.1,2.3-6.3,4.5-9.5,6.6c-0.6,0.4-1.2,0.8-1.8,1.2c-0.9,0.6-1.8,1.1-2.6,1.7
	c-0.8,0.5-1.6,1-2.4,1.5c-1.1,0.7-2.1,1.3-3.2,1.9c-1.1,0.7-2.2,1.3-3.4,2c-0.7,0.4-1.4,0.8-2,1.2c-1.1,0.6-2.1,1.2-3.2,1.8
	c-0.6,0.3-1.1,0.6-1.7,0.9c-1.6,0.9-3.2,1.7-4.8,2.6c-0.4,0.2-0.9,0.4-1.3,0.7c-1.3,0.7-2.7,1.3-4,2c-0.5,0.2-1,0.5-1.5,0.7
	c-1.7,0.8-3.4,1.6-5.2,2.4c4.3,0.2,8.5,0.3,12.8,0.3c2.3,0,4.6,0,6.9-0.1c0.9,0,1.9-0.1,2.8-0.1c1.4,0,2.7-0.1,4-0.2
	c1.2-0.1,2.4-0.2,3.7-0.2c1-0.1,2.1-0.1,3.1-0.2c1.4-0.1,2.8-0.2,4.2-0.4c0.8-0.1,1.6-0.1,2.5-0.2c1.6-0.2,3.1-0.3,4.7-0.5
	c0.7-0.1,1.3-0.1,2-0.2c1.7-0.2,3.4-0.5,5-0.7c0.5-0.1,1-0.1,1.6-0.2c1.1-0.2,2.2-0.3,3.3-0.5c1.8,16.2,5.1,31.9,9.7,47
	c-16.2,4.1-33.1,6.3-50.5,6.3c-7.9,0-15.6-0.5-23.3-1.3c-33.1-27.7-59.5-63.2-76.3-103.7c1.8,0,3.5,0.1,5.3,0.1
	c23.5,0,46.3-3,68.1-8.7c6.8,7.3,14.1,14.2,21.7,20.8c-6-7-11.7-14.4-16.9-22c32.9-9.2,63.3-24.6,89.9-44.7
	c0.5,6.5,0.7,13.1,0.7,19.7c0,10.4-0.6,20.7-1.8,30.8l0,0c-8.5-8.6-16.3-17.8-23.6-27.5c-8.1,4.7-16.5,9-25.2,12.8
	C293.7,359.1,303.1,370.5,313.3,381z M334,361.7L334,361.7L334,361.7L334,361.7L334,361.7z M325.7,462.1c-1.3-10.7-2-21.5-2-32.5
	c0-5.2,0.2-10.3,0.4-15.4c1.8-0.4,3.6-0.9,5.5-1.3c0.1,0,0.2-0.1,0.4-0.1c2-0.5,4.1-1.1,6.1-1.6c0.1,0,0.1,0,0.2,0
	c2.1-0.6,4.1-1.2,6.2-1.8l0,0c44.4-13.5,83.9-38.2,115.3-70.8C435.5,397.6,386.6,443.7,325.7,462.1z M469.5,289.7
	c-27.7,33.2-63.3,59.6-103.8,76.4c0-1.8,0.1-3.5,0.1-5.3c0-23.6-3.1-46.5-8.8-68.3c7.2-6.7,13.9-13.8,20.3-21.3
	c-6.9,5.9-14.1,11.4-21.6,16.6c-9.2-32.8-24.5-63-44.5-89.5c6.5-0.5,13-0.7,19.6-0.7c10.4,0,20.7,0.6,30.8,1.8l0,0
	c-8.6,8.5-17.8,16.3-27.5,23.6c4.7,8.1,9,16.5,12.8,25.2c12.1-8.4,23.5-17.9,34.1-28.1c0.3,0.4,0.6,0.8,1,1.1
	c0.9,1.1,1.9,2.3,2.8,3.4c0.1,0.1,0.1,0.2,0.2,0.2c2.7,3.3,5.3,6.7,7.8,10.1c0.2,0.3,0.5,0.6,0.7,0.9c2.3,3.1,4.5,6.3,6.6,9.5
	c0.4,0.6,0.8,1.2,1.2,1.8c0.6,0.9,1.1,1.8,1.7,2.6c0.5,0.8,1,1.6,1.5,2.4c0.7,1.1,1.3,2.1,1.9,3.2c0.7,1.1,1.3,2.2,2,3.4
	c0.4,0.7,0.8,1.4,1.2,2c0.6,1.1,1.2,2.1,1.8,3.2c0.3,0.6,0.6,1.1,0.9,1.7c0.9,1.6,1.7,3.2,2.6,4.8c0.2,0.4,0.4,0.9,0.7,1.3
	c0.7,1.3,1.3,2.7,2,4c0.2,0.5,0.5,1,0.7,1.5c0.8,1.7,1.6,3.4,2.4,5.2c0.2-4.3,0.3-8.5,0.3-12.8c0-2.3,0-4.6-0.1-6.9
	c0-0.9-0.1-1.9-0.1-2.8c0-1.4-0.1-2.7-0.2-4c-0.1-1.2-0.2-2.4-0.2-3.7c-0.1-1-0.1-2.1-0.2-3.1c-0.1-1.4-0.2-2.8-0.4-4.2
	c-0.1-0.8-0.1-1.6-0.2-2.5c-0.2-1.6-0.3-3.1-0.5-4.7c-0.1-0.7-0.1-1.3-0.2-2c-0.2-1.7-0.5-3.4-0.7-5c-0.1-0.5-0.1-1-0.2-1.6
	c-0.2-1.1-0.3-2.2-0.5-3.3c16.2-1.8,31.9-5.1,47.1-9.7c4.1,16.1,6.3,33,6.3,50.4C470.8,274.4,470.4,282.1,469.5,289.7z"/>
</svg>
