<svg xmlns="http://www.w3.org/2000/svg" xmlns:xlink="http://www.w3.org/1999/xlink" version="1.1" id="Layer_1" x="0px" y="0px" viewBox="0 0 113.4 113.4" style="enable-background:new 0 0 113.4 113.4;" xml:space="preserve"><style type="text/css">
	.st0{fill:#FFFFFF;}
	.st1{fill:#FFC629;}
</style><g><g><path d="M98.1,14.8C94.9,7.8,89.4,1.9,84.2,0c-2,5.5-16.6,46.8-16.6,46.8L56.9,29.5L45.8,47c0,0-14.5-41.3-16.6-46.8    C24,2.1,18.5,8,15.3,15c-3.9,8.6-3.9,17.9-0.2,26.3c2.9,6.4,4.1,9.3,4.9,11.1l-4.5,0l1.6,15.3l12,6.4l-2.9,3.6l0.3,17h5.6l2-12    l3.2-1.7l19.6,32.5l19.2-32.7l3.2,1.7l2,12h5.6l0.3-17l-2.9-3.6l12-6.4l1.6-15.3l-4.5,0c0,0,2-4.6,4.9-11    C102,32.7,101.9,23.4,98.1,14.8z"/><g><path class="st0" d="M44.5,51.1c0,0-12.4-34.4-16.4-46.7C18.7,6.9,9.5,26.2,18.1,42.4C22.2,50.2,34,69.8,34,69.8L44.5,51.1z"/><path class="st0" d="M69.1,51.1c0,0,12.4-34.4,16.4-46.7c9.5,2.5,18.7,21.8,10.1,38.1c-4.1,7.8-15.9,27.4-15.9,27.4L69.1,51.1z"/><polygon class="st0" points="26.8,65.8 22.6,62.9 19.8,55.4 17.8,55.4 18.8,65.2 31.2,72.6    "/><polygon class="st0" points="91.2,62.9 85.5,65.3 81.1,72.2 95,65.2 96,55.4 94,55.4    "/><polygon class="st0" points="56.9,86 44.6,82.9 43.4,85.5 56.9,108.5 56.9,108.5 56.9,108.5 70.3,85.5 69.1,82.9    "/><path class="st1" d="M66.1,50.7c-3.2-6.1-9.2-14.8-9.2-14.9c0,0-6.1,8.7-9.2,14.9l9.2,14.7L66.1,50.7z"/><path class="st1" d="M76.2,70.6c-2.4-3.8-5.5-9-8.6-15.3L56.9,73.7L46.2,55.4c-3.1,6.2-6.2,11.4-8.6,15.3l-8.3,6.7l-1,15.7h2     l2.8-13.3l3.9-1.6l19.9,2.7l19.9-2.7l3.9,1.6L83.5,93h2l-1-15.7L76.2,70.6z"/></g></g></g></svg>